<svg xmlns="http://www.w3.org/2000/svg" fill="none" viewBox="-3.5 0 24 16"><path fill="#0095bf" fill-rule="evenodd" d="M5.23 2.667V2c0-1.105.879-2 1.962-2h2.616c1.083 0 1.961.895 1.961 2v.667h3.27c1.083 0 1.961.895 1.961 2v2.472c0 .58-.246 1.12-.655 1.492l.001.036V14c0 1.105-.878 2-1.961 2H2.615c-1.083 0-1.961-.895-1.961-2V8.631A2.02 2.02 0 0 1 0 7.139V4.667c0-1.105.878-2 1.962-2zM6.539 2a.66.66 0 0 1 .654-.667h2.616A.66.66 0 0 1 10.46 2v.667H6.538zm3.867 9.144 4.634-1.856V14a.66.66 0 0 1-.654.667H2.615A.66.66 0 0 1 1.962 14V9.288l4.633 1.855A1.97 1.97 0 0 0 8.5 12.668a1.97 1.97 0 0 0 1.905-1.524m-1.251-.492v.026a.66.66 0 0 1-.654.655.66.66 0 0 1-.654-.681V10h1.308zm1.307-.963 4.817-1.93c.25-.1.414-.346.414-.62V4.667A.66.66 0 0 0 15.04 4H1.962a.66.66 0 0 0-.654.667v2.472c0 .274.164.52.414.62l4.816 1.93v-.356a.66.66 0 0 1 .654-.666h2.616a.66.66 0 0 1 .653.666z" clip-rule="evenodd"/></svg>