<svg xmlns="http://www.w3.org/2000/svg" fill="none" viewBox="0 0 42 42"><path fill="#173551" d="M8.435 10.44H4.633V9.277H8.4q.46 0 .734-.144a.9.9 0 0 0 .403-.398q.123-.258.124-.585 0-.322-.134-.591a1 1 0 0 0-.403-.437q-.268-.168-.685-.169H7.125v6.062h-1.49V5.788h2.8q.855 0 1.46.303.61.302.938.834t.328 1.216q0 .72-.338 1.236a2.1 2.1 0 0 1-.943.79q-.605.272-1.445.272m.273.406v1.162H4.633v-1.162zM8.435 21.53H4.633v-1.16H8.4q.46 0 .734-.144a.9.9 0 0 0 .403-.397q.123-.258.124-.586 0-.323-.134-.59a1 1 0 0 0-.403-.437q-.268-.17-.685-.17H7.125v6.062h-1.49V16.88h2.8q.855 0 1.46.303.61.303.938.834.328.532.328 1.216 0 .72-.338 1.236a2.1 2.1 0 0 1-.943.79q-.605.273-1.445.273m.273.408v1.161H4.633V21.94zm-.273 11.177H4.633v-1.162H8.4q.46 0 .734-.144a.9.9 0 0 0 .403-.397q.123-.258.124-.586 0-.323-.134-.59a1 1 0 0 0-.403-.437q-.268-.17-.685-.169H7.125v6.061h-1.49v-7.227h2.8q.855 0 1.46.302.61.303.938.834t.328 1.217q0 .72-.338 1.236a2.1 2.1 0 0 1-.943.789q-.605.273-1.445.273m.273.407v1.162H4.633v-1.162zm29.189-28.48c3.924-.296 3.297 2.901 2.33 5.33.464.213 1.826.838 1.772 1.465-.128 1.51-2.297 7.629-3.824 7.807-.774-.65-.46-.809-.18-1.64.439-1.301 2.619-4.674 2.243-5.888l-.372-.157-.254.147c-2.136 4.718-5.526 12.335-7.485 16.7-.566 1.348-1.221 2.679-1.782 4.022-.539 1.29-3.658 4.517-5.052 3.707-.123-.383-.406-3.747-.525-4.587l7.695-17.382c1.222-2.741 2.482-5.8 3.947-8.408.336-.599.883-.84 1.487-1.116"/><path fill="#fff" d="M35.874 10.777c.65.261 1.504.695 2.156 1.002-.239.587-.929 2.283-1.202 2.748-1.801 3.07-7.06 17.673-9.104 19.298l-1.21.842c-.044-.804-.349-2.068-.032-2.773 3.12-6.941 6.024-14.316 9.392-21.117m2.148-3.762c1.782.364 1.246 1.926.495 3.015l-.26.042c-.526-.221-1.126-.52-1.651-.764.407-.956.66-1.579 1.416-2.293"/><path fill="#173551" d="m1.808 1.005 17.538-.01c3.242-.006 6.516-.073 9.744.066 1.865.173 1.832 1.777 1.863 3.137.072 3.122-.277 6.626-.002 9.689l.017.18c-.504.97-1.02 1.843-1.574 2.782-.134-2.056.18-12.982-.309-14.058-1.394-.322-4.288-.237-5.83-.24l-8.437-.003-7.777.003c-1.539 0-3.683-.065-5.154.152-.307.37-.347.418-.352 1.008-.026 3.19-.01 6.427-.01 9.613l.006 19.835c-.002 1.275-.203 5.258.273 6.143.827.115 1.65.152 2.483.168 2.425.045 24.464.227 24.8-.206.46-.592.261-2.27.251-3.015.635-.524.99-.937 1.541-1.555.027 1.223.209 4.073-.236 5.134-.183.447-.542.8-.993.978-.353.137-.906.223-1.29.22-8.6-.095-17.203.032-25.802-.05-.56-.004-1.28-.12-1.788-.359-.413-.42-.707-.723-.719-1.343-.073-3.952-.04-7.955-.038-11.904L.006 11.438C.004 8.656-.015 5.872.028 3.092c.019-1.265.58-1.82 1.78-2.087"/><path fill="#173551" d="M14.266 18.045c3.927-.385 8.593.111 12.59-.069.697-.031 1.099-.017 1.572.49.098.504.016.587-.194 1.088q-.252.032-.506.052c-3.753.284-8.073-.14-11.884.024-.686.03-1.186.02-1.703-.424-.152-.5-.043-.662.125-1.161m.141 4.36c3.407-.155 8.45-.009 11.996.027.25.003.409.311.53.502.023.533-.065.63-.342 1.095-3.259.17-8.529.017-11.949-.038-.268-.004-.446-.348-.577-.557-.027-.494.075-.578.342-1.03m-.14-15.906c3.108-.067 6.421-.071 9.544-.012.484.01.556.151.813.442.114.5.01.648-.168 1.143-2.415.177-7.232.065-9.812-.05-.32-.015-.47-.276-.606-.502-.032-.498.02-.547.229-1.021m.001 4.392c2.555-.216 7.04.004 9.74-.006.288-.001.44.295.586.506.051.495-.02.566-.234 1.04-2.597.212-6.537.007-9.23.065-.578.013-.732-.178-1.044-.533-.079-.512-.029-.591.182-1.071m2.968 18.029c1.49-.015 5.953-.272 6.981.397l.044.43c-.814.968-1.848.888-2.969.853-1.87.005-4.817.122-6.683-.09-.36-.04-.478-.435-.586-.722.248-1.233 2.157-.883 3.213-.868m2.514 4.384c.944-.015 2.506-.28 3.135.475.107.528.132.328-.02.828-.838.657-4.262.388-5.518.376-.976.024-2.65.274-3.268-.507-.03-.465-.034-.483.181-.881.668-.472 4.468-.291 5.49-.291"/></svg>