<svg xmlns="http://www.w3.org/2000/svg" fill="none" viewBox="0 0 42 42"><path fill="#173551" d="M1.787 8.767c.404-.04.908-.054 1.317-.057l16.201.007 5.222-.011c1.278-.003 3.573-.259 4.432.75.914 1.074.65 3.83.645 5.255l-.021 7.051c-.4-.244-.81-.509-1.207-.76l.004-4.8L1.283 16.2c.004 1.29-.24 8.423.3 8.971.23.232.462.309.78.34 2.006.196 4.738.019 6.836.017l14.296.03c-2.235-1.01-5.12-3.017-2.93-5.756 2.66-3.325 7.476 2.651 9.16 2.52.875-.482.354-1.887.612-2.628.336.06.416.048.664.26.404.953.37 1.479.172 2.48.538-.343.86-.697 1.455-.322l.054.262c-.227.782-1.024 1.176-1.777 1.267-3.37.407-5.337-3.556-8.523-3.567-.749-.025-1.522 1.13-1.358 1.826.525 2.231 3.96 2.52 5.347 3.775 1.868 1.69 2.462 3.511 4.962 4.609 3.069 1.347 4.764.142 7.688 2.148-.203.331-.44.596-.688.892-2.106-1.25-3.076-.868-5.326-1.258-1.061-.184-2.012-.623-2.975-1.084-2.671 1.104-7.058 1.798-8.725-1.25-1.624-.446-2.159-.844-2.894-2.384l1.293-.048c.534.798.877.957 1.765 1.161 1.958-2.192 2.876-.618 4.941-.641l.1-.12c-.12-.38-.421-.637-.701-.938-7.689.073-15.397-.075-23.087-.021-1.65.027-2.672-.904-2.694-2.583-.058-4.247.055-8.507-.03-12.755-.025-1.31.622-2.105 1.787-2.637"/><path fill="#fff" d="M1.968 9.963c1.08-.096 2.801-.042 3.925-.041l6.869.002 8.998-.002c1.665-.005 3.325-.025 4.995-.006.727.008 1.471.101 1.596 1.002.057.411.152 1.047-.108 1.399l-.343.04-26.622-.002c-.032-1.064-.238-1.698.69-2.392M25.665 30.618c-.973.004-2.245.08-2.925-.82a.75.75 0 0 1-.138-.598c.21-1.029 1.753-.642 2.388-.358.815.363 2.162-.171 2.613.299-.342.326-1.397-.166-2.01.544-.045.34.026.429.173.739z"/><path fill="#fff" d="M25.767 30.424c.71-.044 1.71-.142 2.391-.047-.85.248-1.624.251-2.492.24z"/><path fill="#173551" d="M4.045 19.557c1.068-.013 2.263-.086 3.307-.065 1.383.028 1.313 1.985 1.106 2.909-.078.35-.362.497-.664.657-2.618.036-5.2.92-4.435-2.901.063-.312.441-.482.686-.6M32.831 16.967c2.244.772 4.77 5.514 6.955 6.876 1.01.629 1.075.643 2.213 1.04-.117.454-.156.647-.37 1.067-3.313-.637-5.213-3.945-7.37-6.236-.678-.72-1.221-1.177-1.99-1.814.164-.366.34-.606.562-.933M10.346 19.565c1.613-.017 3.365-.12 4.975.028.408.038.544.15.693.497-.034.348-.062.357-.312.626-1.58.018-3.27.091-4.848-.028-.44-.033-.637-.128-.817-.515.07-.411.007-.253.31-.608M10.188 21.951c1.024-.018 3.83-.354 4.481.335.08.346.025.425-.083.781-.937.017-3.895.289-4.466-.35-.105-.347-.057-.401.068-.766M30.178 15.917c.698.16 1.593.249 2.013.794.082.433.02.38-.16.85l-.063.074c-.415-.001-1.342-.37-1.781-.524z"/></svg>