<svg xmlns="http://www.w3.org/2000/svg" fill="none" viewBox="-4 -4 24 24"><path fill="#0095bf" fill-rule="evenodd" d="M3.235 1.602q-.212 0-.407.046A3.5 3.5 0 0 0 2.151.634C1.699.18.986 0 0 0v1.6c.603 0 .95.087 1.027.166.3.302.562.916.562 1.434l.008.113.779 5.487A2.485 2.485 0 0 0 0 11.16V12c.077 1.315 1.083 2.327 2.338 2.399h.18A2.39 2.39 0 0 0 4.769 16c1.037 0 1.92-.668 2.247-1.6h1.86c.328.932 1.21 1.6 2.248 1.6a2.39 2.39 0 0 0 2.384-2.4c0-1.325-1.067-2.4-2.384-2.4-1.037 0-1.92.668-2.248 1.6h-1.86a2.39 2.39 0 0 0-2.248-1.6c-1.038 0-1.92.668-2.248 1.6h-.135c-.406-.025-.77-.39-.796-.848l.001-.752c.021-.415.382-.778.834-.801h1.568l.012.001h8.008l.117-.037a2.1 2.1 0 0 0 1.313-1.241l.084-.167.272-.542.837-1.674a126 126 0 0 0 1.187-2.412c.48-1.079-.493-1.909-1.487-1.927zm8.5 7.198H4.062a.14.14 0 0 1-.097-.112l-.779-5.487 11.03.795c-.192.396-.543 1.104-1.002 2.025l-.012.023-.824 1.648-.272.542-.103.205-.039.09a.5.5 0 0 1-.23.271m-.612 5.6a.797.797 0 0 0 .795-.8c0-.442-.356-.8-.795-.8a.797.797 0 0 0-.794.8c0 .442.356.8.794.8m-5.561-.8c0 .442-.356.8-.795.8a.797.797 0 0 1-.794-.8c0-.442.355-.8.794-.8s.795.358.795.8" clip-rule="evenodd"/></svg>