<svg width="24" height="18" viewBox="-2 0 24 18" fill="none" xmlns="http://www.w3.org/2000/svg">
<path fill-rule="evenodd" clip-rule="evenodd" d="M19.4815 0.32739C20.0897 0.82999 20.1754 1.73045 19.6727 2.33863L8.187 16.2376L8.18354 16.2417C7.92229 16.5554 7.5944 16.807 7.22373 16.978C6.85304 17.1491 6.4489 17.2354 6.04069 17.2307C5.62579 17.2256 5.21616 17.1264 4.84503 16.9408C4.47514 16.756 4.1518 16.4898 3.8991 16.1626C3.89824 16.1614 3.8974 16.1604 3.89654 16.1593L0.300991 11.5364C-0.183394 10.9137 -0.0712029 10.0161 0.551578 9.53173C1.17436 9.04735 2.0719 9.15955 2.55629 9.78232L6.07567 14.3073L17.4702 0.51859C17.9728 -0.0895946 18.8734 -0.175196 19.4815 0.32739Z" fill="#0095BF"/>
</svg>
