<svg xmlns="http://www.w3.org/2000/svg" fill="none" viewBox="0 0 42 42"><path fill="#173551" d="M18.886.163c6.107-1.048 11.906 3.061 12.942 9.172 1.037 6.11-3.082 11.903-9.194 12.928-6.095 1.023-11.866-3.084-12.9-9.179C8.7 6.99 12.795 1.21 18.886.164"/><path fill="#fff" d="M19.598 2.223c2.015-.108 3.664.09 5.454 1.117a8.83 8.83 0 0 1 4.093 5.35c.691 2.587.088 5.79-1.272 8.075-1.532 2.573-2.994 2.797-5.664 3.462C11.198 21.869 7.541 4.604 19.6 2.223"/><path fill="#173551" d="M20.183 23.3c1.909-.067 4.993 2.347 5.203 4.146-.558 1.616-2.165.504-2.99.912-.032.157 1.742 9.592 1.95 10.734-.917.856-2.123 1.836-3.093 2.666l-.366.242c-.792-.016-2.945-2.256-3.628-2.896.337-3.357.921-6.797 1.558-10.107.197-1.025-1.607-.172-2.607-1.494-.206-1.608 2.677-3.561 3.973-4.203m5.179-.847c2.385-.01 9.72 3.14 12.479 3.844 4.029 1.029 4.278 9.467 4.017 12.874-.362.006-1.79.088-1.88-.332-.583-2.757.234-7.235-1.546-9.583-1.886-2.487-13.635-3.178-13.07-6.803m-9.511.02.322.11.09.367c-.217.657-.75 1.206-1.201 1.744-2.407.788-10.156 2.879-11.784 4.765-1.43 1.658-.753 7.446-1.486 9.603-.106.31-.696.421-.995.522-.218-.203-.713-.651-.714-.991-.069-2.335.102-8.662 1.455-10.433 1.864-2.443 11.355-5.196 14.313-5.687"/></svg>