<svg xmlns="http://www.w3.org/2000/svg" fill="none" viewBox="0 0 42 42"><path fill="#173551" d="m22.198 23.067 3.073-.003c.446.744 1.71 2.9 1.764 3.631-1.15.033-3.555-.174-4.838-.227zM27.331 26.327c.34-.013.58-.059.884.082.19.265.142.576.143.921-.36.019-.567.06-.904-.07-.194-.35-.123-.487-.123-.934M10.428 30.297a.836.836 0 1 1 .369 1.631.836.836 0 0 1-.369-1.63M24.954 30.404a.83.83 0 1 1 .39 1.615.83.83 0 0 1-.39-1.615"/><path fill="#173551" fill-rule="evenodd" d="M6.08 18.326c5.183.017 10.41-.138 15.584.08.713.03 1.234 2.208 1.491 2.779 1.045.009 3.4-.15 3.977.592 1.01 1.304 3.047 3.803 3.833 5.168.015 3.916 1.172 4.901-3.239 4.875-.278.724-.385.927-.956 1.455 1.274.043 2.295.079 3.566.25-4.562.521-7.177.103-11.435.09-.278-.104-.56-.132-.854-.177 1.83.016 3.673-.075 5.503-.146-.563-.52-.671-.756-.928-1.465-2.934-.125-6.286-.056-9.245-.056-.316.789-.458.963-1.089 1.54 1.11.082 1.996.122 3.107.125l-.283.192c-.844-.016-2.101.096-3.008.118a43 43 0 0 1-6.036-.234 37 37 0 0 1 2.922-.203c-.713-.669-.91-1.01-1.075-1.942-.946-.037-2.1.017-2.997-.068-.31-.176-.318-.22-.523-.525-.079-.638.625-.704 1.14-.849.176-.221.139-.685.148-.994-.91-.166-1.645-.152-1.615-1.349.013-.506.027-1.024.035-1.533l.894.23.021 1.337 11.249-.006-.01-.131c.694-.072 1.948.19 2.817-.031l-.038-.11.28-.034-.007-8.089a691 691 0 0 0-9.05-.021c-1.076 0-4.188-.064-5.033.146-.354.4-.245 3.296-.248 4.001l-.883-.49c-.026-1.255-.256-3.207.43-4.189.305-.214 1.18-.337 1.555-.336m20.556 12.575a1.502 1.502 0 1 0-2.94.618 1.502 1.502 0 0 0 2.94-.618m-14.819-.894a1.56 1.56 0 1 0-2.3 2.106 1.56 1.56 0 0 0 2.3-2.106m8.803-7.836c-.03 2.608-.085 5.624-.007 8.215l2.091.006c1.476-3.251 4.162-1.582 5.13.01q.132.025.262.051l1.98.011.001-3.086c-1.136-1.187-3.229-3.748-4.193-5.146zm-1.01 7.175c-2.074-.132-4.92-.058-7.052-.066.428.418.504.502.808 1.013 1.153.03 5.318.2 6.358.057.002-.369.042-.681-.115-1.004M8.928 28.98c-.509.003-1.898-.046-2.264.066-.138.278-.083.457-.048.77.39.335.997.23 1.553.218.326-.492.408-.62.873-.984zm11.19-7.793 1.667-.022c-.293-1.266-.173-1.963-1.664-1.94z" clip-rule="evenodd"/><path fill="#173551" d="M19.441 8.284q.3-.03.604-.048c3.66-.209 7.254 1.05 9.984 3.5 1.3 1.155 3.588 4.213 3.69 5.861-.505.042-1.367-.71-1.913-1.044-.72-1.549-1.309-2.469-2.424-3.756H26.64c1.044 2.1 1.467 3.425 1.7 5.738-.333.002-3.396-.1-2.49-.292.246-.053.79-.026 1.031-.023-.247-2.135-.73-3.513-1.63-5.427-.675-.005-3.499-.075-3.965.085l-.061.193c.003.831.07 3.525-.066 4.13-.227.113-.48.071-.738.06-.269-.413-.175-3.76-.172-4.465l-4.05.001c-.617 1.422-1.123 2.976-1.368 4.51l-1.476.003c.347-1.727.762-2.913 1.55-4.49l-2.83-.023c-1.356 1.766-1.745 2.44-2.549 4.524l-1.64-.02a13.5 13.5 0 0 1 2.21-4.053c2.33-2.916 5.668-4.568 9.346-4.964"/><path fill="#fff" d="M21.209 9.147c1.59.436 2.707 1.412 3.578 2.778-1.096.046-2.461-.003-3.577-.013zM19.98 9.22l.142.02c.255.314.145 2.188.137 2.675l-3.125-.008-.27-.04-.009-.193c.61-1.091 1.974-2.007 3.126-2.454M17.698 9.45l.098.03c-1.098 1.067-1.337 1.052-2.36 2.473l-2.054-.045-.222-.031-.01-.1c1.325-1.262 2.855-1.81 4.548-2.328M23.6 9.445c1.696.383 3.628 1.2 4.85 2.457a70 70 0 0 1-2.345.054c-.861-1.114-1.42-1.611-2.505-2.511"/><path fill="#173551" d="M34.594 15.087c1.078-.108 2.816 2.026 3.63 2.839.967-.176 3.203-.666 3.773.412.101 1.336-2.596 1.67-3.499 1.84a393 393 0 0 0-1.812 3.592l-1.486.341c.412-.975.661-2.481.872-3.562-4.299.496-6.142.825-6.142.825-.997-.743-1.596-1.448-2.432-2.374 1.677-.032 2.07-.15 3.493.686 0 0 .419-.311 4.699-1.31-.536-1.07-1.167-2.054-1.796-3.068.231-.197.367-.164.7-.221M16.256 27.48C11.378 27.06 3.99 26.412.55 22.373c-2.338-2.748 3.454-6.142 4.702-5.823l-.017.164c-1.154 1.165-3.356 1.546-3.53 3.573-.048.564.208 1.394.62 1.773 4.03 3.704 11.511 4.793 16.711 5.276l.038.11c-.87.223-2.123-.04-2.818.032"/><path fill="#173551" d="M34 22.238c.374 1.205-1.326 4.722-1.993 5.839.022-.315.013-.656.013-.974-.137-.796-.605-1.116-.98-1.84.162-.322.448-.115.807-.346.154-.1.211-.594.28-.85 1.178-.368.963-.826 1.872-1.829M22.926 18.04c.656-.007 1.323.036 1.979.069.095.395.205.62.366.986l-1.77.019z"/></svg>