<svg xmlns="http://www.w3.org/2000/svg" fill="none" viewBox="0 0 42 42"><path fill="#173551" d="M18.656 41.753c1.219-.28 4.52-.29 5.709 0-1.807.07-3.882.019-5.709 0m9.247-14.566 4.468-.01c.746 1.288 2.219 3.676 2.49 5.026-2.038.07-4.909-.159-6.988-.267zm-11.719-6.949c1.721-.135 6.356-.214 7.913.156l.212.055-.131.276c-.99.147-7.263.272-8.207.073l-.078-.183.19-.184zm1.838-1.02c.21-.706.067-1.296.33-1.896.794.015 1.157 1.172.682 1.923-.409.18-.534.11-.999.018z"/><path fill="#173551" d="M18.036 19.263c-.646.18-.81.284-1.213-.23-.127-.606-.042-1.504.663-1.664.482.54-.035 1.144.536 1.85zm4.41.065c-.458.02-.566.03-1.013-.044-.57-.58-.622-1.785.277-2.039.392.495.018.979.366 1.783l.297.099z"/><path fill="#173551" d="M22.373 19.127c.026-.47.022-1.282.192-1.684.69.162.754 1.017.613 1.606l-.218.247-.514.032zM10.413 36.98a1.301 1.301 0 1 1 .292 2.585 1.301 1.301 0 0 1-.292-2.586"/><path fill="#173551" fill-rule="evenodd" d="M19.787 5.897c1.904.087 2.776 7.373 3.73 8.75.165.236 1.237.614 1.992 1.618l.033 4.343c3.968-.073 3.696.384 4.897 4.04 1.538-.023 3.653-.326 4.609.83 1.655 2.003 3.972 4.75 5.445 6.855.054 5.566 1.59 6.888-4.684 6.908-.322.9-.533 1.26-1.239 1.951 1.48.026 3.181.113 4.65.295-4.439.805-10.347.474-14.855.267-1.807.069-3.882.018-5.709 0-4.86.201-9.466.46-14.304-.132 1.206-.171 2.353-.336 3.567-.45-.905-.93-1.02-1.224-1.333-2.492-1.208-.033-3.766.137-4.534-.487-.215-.544-.202-.316-.069-.864.448-.527.686-.519 1.329-.687.283-.363.265-.401.287-.883-.394-.841-1.216-.326-1.97-.968-.52-1.133-.376-11.442.129-12.777.107-.283.29-.726.577-.866 1.613-.784 10.124-.316 12.314-.358l-.03-4.378c1.14-1.625 1.348-.87 2.19-2.203.885-1.403 1.904-7.671 2.978-8.312m-5.21 33.32c-.36.36-.855 1.342-1.386 1.95 4.79.156 9.856.425 14.638.025.501.009 1.134.103 1.5-.166-.105-.564-.575-.899-.86-1.76q-6.946-.066-13.893-.05m-1.898-1.658a2.186 2.186 0 1 0-4.175 1.298 2.186 2.186 0 0 0 4.175-1.298m19.18-1.267a2.045 2.045 0 1 0 .599 4.045 2.045 2.045 0 0 0-.6-4.045m1.302-10.173c-2.388-.03-5.032-.114-7.4-.067q-.052 5.595-.026 11.191l2.913.005c.541-1.159 1.122-1.935 2.387-2.388a3.66 3.66 0 0 1 2.89.186c1.04.526 1.469 1.196 1.982 2.208.67.014 2.7.163 3.145-.174l-.001-4.133a75 75 0 0 0-1.956-2.114c.028.636.13 1.5-.096 2.068-.35.319-.894.338-1.287.072-.178-.481-.232-.538-.14-1.02.278-.423.4-.5.8-.82.23-1.013-2.497-4.23-3.21-5.014m-8.863 9.868c-2.157-.257-8.088-.098-10.65-.123.365.47.647.819.946 1.336l9.812.03c.005-.373.064-.944-.108-1.243m-.31-13.923c-6.969.005-14.074-.066-21.03.017-.489.693-.256 9.93-.25 11.475 6.953-.027 14.064.032 21.004-.075l.23-.166c.122-.998.063-2.94.061-4.003zm1.182 2.524 3.116-.023c-.256-.79-.537-1.74-.843-2.5l-2.28-.04zm-5.012-8.702a10.5 10.5 0 0 1-1.594.999c-.838-.225-1.356-.469-2.254-.616l-.218.17c-.356.713-.598 3.362.092 3.798l-.102.194-.19.184.079.184c.943.198 7.216.073 8.207-.073l.132-.277c.001-1.26.54-3.382-.605-4.058-.579-.053-1.066.282-1.613.556-.619-.29-1.328-.717-1.934-1.061m-.169-8.17c-.322 1.075-2.268 7.232-2.141 7.678.797.114 1.68-.58 2.47-.713q1.142.591 2.277 1.199c-.313-1.032-2.288-7.85-2.606-8.163" clip-rule="evenodd"/><path fill="#173551" d="M31.905 37.148a1.223 1.223 0 1 1 .539 2.385 1.223 1.223 0 0 1-.54-2.386"/><path fill="#fff" d="M4.896 35.499c.624.017 2.656-.17 3.032.185l-.462.393c-.616.884-1.35 1.052-2.33.555-.34-.457-.23-.484-.24-1.133"/><path fill="#173551" d="M20.072 0c.204.273.796 1.496.984 1.87.72.043 1.525.17 2.248.268-.49.485-1.15 1.004-1.69 1.453.146.705.27 1.466.4 2.18a68 68 0 0 1-1.84-1.016c-.53.338-1.244.658-1.822.937l.33-2.054c-.645-.487-1.162-.968-1.754-1.51.76-.121 1.486-.173 2.25-.235z"/></svg>