<svg xmlns="http://www.w3.org/2000/svg" fill="none" viewBox="0 0 25 24"><path fill="#0095bf" stroke="#0095bf" stroke-width=".6" d="M10.484 8.043a.177.177 0 0 1-.174-.174c0-.094.08-.174.174-.174h7.08c.095 0 .175.08.175.174v10.845c0 .094-.08.172-.174.172H8.407c-.1 0-.174-.08-.174-.172v-.007a1.254 1.254 0 0 0-2.502.016c0 .087-.08.165-.174.165H4.094a.176.176 0 0 1-.174-.172v-5.012c0-.1.08-.173.174-.173a.17.17 0 0 1 .172.173v4.831h1.133c.057-.352.231-.677.483-.916.282-.274.67-.44 1.097-.44.425 0 .821.166 1.103.44.252.239.426.564.476.916h8.833V8.043z"/><path fill="#0095bf" stroke="#0095bf" stroke-width=".6" d="M17.564 10.113h3.029a.16.16 0 0 1 .144.08l3.526 4.428c.02.03.036.064.036.107v3.988c0 .094-.08.172-.174.172h-1.462a.176.176 0 0 1-.175-.172v-.007a1.254 1.254 0 0 0-2.113-.835c-.224.215-.368.52-.389.851 0 .087-.08.165-.174.165h-2.25a.177.177 0 0 1-.174-.171v-8.435c0-.094.08-.174.174-.174zm2.949.352h-2.775v8.068h1.925c.05-.352.225-.678.477-.916a1.58 1.58 0 0 1 1.103-.44c.433 0 .815.166 1.104.44.244.238.418.564.476.916h1.13v-3.75l-3.438-4.32zM16.145 10.428h-5.87v.346h5.87zM16.145 13.119H8.018v.345h8.127zM16.145 15.802H4.095v.352h12.05z"/><path fill="#0095bf" stroke="#0095bf" stroke-width=".6" d="M24.126 14.561h-6.562v.346h6.562zM6.978 17.178c.447 0 .843.18 1.133.47l.007.006a1.585 1.585 0 0 1-.007 2.248 1.59 1.59 0 0 1-2.257 0 1.585 1.585 0 0 1 0-2.255c.289-.288.685-.47 1.124-.47Zm.886.714a1.237 1.237 0 0 0-1.765 0 1.237 1.237 0 0 0 0 1.765c.224.231.54.369.88.369.338 0 .663-.138.885-.369a1.24 1.24 0 0 0 .01-1.758l-.008-.007zM21.24 17.178c.44 0 .837.18 1.125.47a1.585 1.585 0 0 1 0 2.255 1.585 1.585 0 0 1-2.255 0 1.585 1.585 0 0 1 0-2.256c.288-.288.691-.47 1.13-.47Zm.88.714a1.24 1.24 0 0 0-1.765 0 1.237 1.237 0 0 0 0 1.765c.224.231.54.369.886.369s.657-.138.88-.369c.23-.224.368-.533.368-.879s-.138-.664-.369-.886ZM18.155 11.287h2.15c.1 0 .181.08.181.174v2.466c0 .094-.08.172-.18.172h-2.15a.175.175 0 0 1-.175-.172V11.46c0-.094.08-.174.174-.174Zm1.976.353H18.33v2.113h1.802zM5.529 3.629c1.442 0 2.747.584 3.693 1.53a5.2 5.2 0 0 1 1.536 3.699 5.2 5.2 0 0 1-1.53 3.693 5.25 5.25 0 0 1-3.7 1.536 5.24 5.24 0 0 1-3.699-1.536A5.2 5.2 0 0 1 .3 8.858a5.22 5.22 0 0 1 5.23-5.23Zm3.445 1.774A4.86 4.86 0 0 0 5.53 3.975a4.9 4.9 0 0 0-3.455 1.428A4.9 4.9 0 0 0 .646 8.858a4.86 4.86 0 0 0 1.428 3.448 4.87 4.87 0 0 0 3.455 1.428c1.348 0 2.566-.54 3.445-1.428a4.866 4.866 0 0 0 0-6.903Z"/><path fill="#0095bf" stroke="#0095bf" stroke-width=".6" d="M5.529 6.168c1.42 0 2.71.288 3.65.758.972.483 1.579 1.16 1.579 1.932s-.607 1.442-1.58 1.932c-.938.463-2.227.749-3.65.749-1.42 0-2.71-.288-3.648-.749C.906 10.3.3 9.623.3 8.858s.604-1.45 1.58-1.932c.938-.47 2.227-.758 3.649-.758Zm3.498 1.067c-.895-.447-2.127-.721-3.498-.721s-2.603.274-3.498.72c-.852.427-1.385.997-1.385 1.624s.533 1.197 1.385 1.616c.892.447 2.126.721 3.498.721 1.371 0 2.603-.274 3.498-.72.852-.42 1.385-.997 1.385-1.617S9.88 7.661 9.027 7.235Z"/><path fill="#0095bf" stroke="#0095bf" stroke-width=".6" d="M5.53 3.629c.908 0 1.73.597 2.32 1.564.57.936.923 2.234.923 3.663s-.352 2.717-.922 3.663c-.59.966-1.413 1.563-2.322 1.563s-1.73-.597-2.321-1.563c-.57-.946-.923-2.244-.923-3.663 0-1.42.353-2.727.923-3.663.59-.967 1.405-1.564 2.321-1.564Zm2.025 1.738c-.526-.859-1.24-1.392-2.026-1.392s-1.5.533-2.026 1.392c-.54.895-.872 2.12-.872 3.489s.332 2.596.872 3.482c.527.858 1.241 1.392 2.026 1.392.786 0 1.5-.534 2.026-1.392.534-.886.873-2.12.873-3.482s-.34-2.597-.873-3.49Z"/><path fill="#0095bf" stroke="#0095bf" stroke-width=".6" d="M5.357 3.803c0-.1.08-.174.174-.174s.174.073.174.174v10.1c0 .101-.08.182-.174.182a.18.18 0 0 1-.174-.181z"/></svg>