<svg xmlns="http://www.w3.org/2000/svg" fill="none" viewBox="0 0 25 25"><path fill="#0095bf" stroke="#0095bf" stroke-width=".6" d="m7.594 1.667 4.77 1.158a.235.235 0 0 1 .174.231V9.76a.235.235 0 0 1-.232.231c-.027 0-.048-.01-.075-.01l-4.76-1.166a.23.23 0 0 1-.182-.218V1.892c0-.134.106-.231.231-.231.03 0 .058 0 .076.009zm4.482 1.56L7.758 2.173v6.233l4.318 1.052z"/><path fill="#0095bf" stroke="#0095bf" stroke-width=".6" d="m16.86 2.174-4.33 1.052v6.233l4.33-1.052zm-4.615.65 4.767-1.158c.018-.009.048-.009.076-.009a.23.23 0 0 1 .23.231v6.704c0 .107-.075.192-.182.219l-4.758 1.168c-.027 0-.048.009-.076.009a.235.235 0 0 1-.23-.231V3.053c0-.107.066-.2.173-.231z"/><path fill="#0095bf" stroke="#0095bf" stroke-width=".6" d="M16.183 1.867 12.303.785 8.425 1.867l3.88.949zM12.361.326l4.789 1.34a.22.22 0 0 1 .164.165.23.23 0 0 1-.173.276l-4.78 1.168a.25.25 0 0 1-.115 0l-4.78-1.168a.25.25 0 0 1-.173-.164c-.027-.125.04-.25.164-.277l4.78-1.34a.3.3 0 0 1 .124 0Zm4.013 7.509a.23.23 0 0 1-.232.228.237.237 0 0 1-.24-.228V2.962a.236.236 0 0 1 .472 0zm-.949-.787c0 .134-.106.24-.231.24-.134 0-.231-.106-.231-.24V3.743c0-.134.094-.24.231-.24.125 0 .231.106.231.24zM10.004 21.48l.22-1.83.151-1.301.049-.441.027-.307a.1.1 0 0 0 0-.067v-.085l-.027-.107-.027-.115a.5.5 0 0 0-.049-.125l-.058-.143c-.027-.058-.057-.106-.076-.152-.03-.048-.058-.106-.085-.152q-.06-.099-.106-.182c-.04-.058-.085-.116-.125-.183-.049-.067-.097-.124-.134-.191-.057-.067-.106-.134-.152-.192-.048-.067-.106-.124-.152-.191-.058-.067-.115-.125-.173-.192s-.116-.124-.164-.182l-.164-.165a17 17 0 0 1-.891-.814c-.25-.259-.46-.499-.642-.727a8 8 0 0 1-.49-.69c-.142-.219-.276-.45-.43-.69v-.018a11 11 0 0 1-.26-.432 10 10 0 0 0-.297-.46 25 25 0 0 0-.344-.516 17 17 0 0 0-.422-.566l-.058-.048-.067-.058c-.027-.018-.058-.04-.076-.049-.027-.018-.058-.04-.085-.048-.028-.018-.058-.028-.085-.049-.028-.01-.058-.018-.086-.04-.039-.009-.066-.018-.094-.027a.3.3 0 0 0-.094-.018.3.3 0 0 0-.085-.018c-.028-.01-.058-.01-.085-.019h-.174c-.027 0-.048.01-.076.01-.018.009-.04.009-.057.018h-.01c-.018 0-.027.009-.057.018a.07.07 0 0 1-.049.018l-.04.028-.027.027-.076.076a.6.6 0 0 0-.076.231q-.014.16.028.365c.018.152.066.316.133.49.067.182.152.364.25.565.094.2.21.41.325.632.125.21.258.432.392.65.268.423.557.874.842 1.293l.019.027c.69 1.043 1.292 1.964 1.38 2.548.009.107.009.143 0 .24v.028c-.018.076-.027.097-.058.173l-.009.018-.027.049-.019.018-.04.049-.017.018-.04.04-.018.018-.058.027-.018.018-.049.019-.027.009-.067.027-.076.01-.058.008h-.058a.6.6 0 0 1-.173-.027l-.076-.027-.027-.019-.049-.027-.027-.018-.04-.04-.018-.018c-.018-.018-.04-.049-.058-.067-.085-.124-.173-.25-.267-.392-.107-.134-.21-.286-.326-.432-.222-.289-.48-.614-.748-.958l-.027-.018c-.672-.842-1.408-1.772-1.991-2.672-.602-.918-1.043-1.81-1.11-2.566-.01-.085-.01-.173-.01-.25 0-.085 0-.164.01-.24.018-.085.027-.16.049-.24.018-.076.048-.143.076-.219a1 1 0 0 1 .106-.2 1.5 1.5 0 0 1 .134-.192c.048-.058.094-.115.152-.173s.124-.107.182-.152q.06-.041.107-.067a1 1 0 0 1 .115-.067c.028-.018.076-.04.116-.058.048-.018.085-.04.124-.048l.04-.019-.094-3.572-.067-2.098v-.067l-.01-.085-.008-.048-.019-.067-.009-.049-.018-.049-.027-.048-.019-.04-.027-.04-.04-.048-.027-.027-.04-.04-.048-.04-.049-.027-.058-.027-.066-.027-.076-.03L1.923 2l-.04-.008-.173.86-.164.833-.106.584-.106.565-.107.651-.04.2c-.018.153-.048.308-.066.411-.01.085-.058.423-.125.918-.027.259-.067.548-.094.842-.028.308-.067.633-.094.998-.028.355-.058.708-.076 1.043-.019.343-.028.69-.04 1.006 0 .325.01.632.027.909q.027.362.098.623a.7.7 0 0 0 .048.152c.019.058.04.107.058.164.027.058.049.116.076.183s.067.124.094.182c.028.067.067.134.107.2.04.059.076.135.124.21.049.086.095.153.134.21.049.067.094.143.152.22.152.218.316.44.49.64.2.25.392.481.574.682.125.134.231.24.316.334.143.152.25.259.29.298h.008c.086.076.174.143.25.22.094.075.173.163.249.24.085.084.164.173.24.258.085.085.164.182.231.267.076.107.152.201.22.29.066.106.133.209.2.297.058.107.124.21.182.316s.116.21.174.326c.027.057.066.133.106.21.04.085.067.163.094.23.028.076.058.143.085.22.028.085.058.151.076.218.049.116.076.25.116.365l.027.116c0 .027 0 .057.01.097 0 .027 0 .067-.01.094l-.058.365-.057.334-.04.307-.04.286-.039.277c-.009.085-.009.164-.018.25-.01.075-.018.151-.018.248-.01.076-.01.152-.01.21l-.009.183v.173c0 .049 0 .094.01.143 0 .049 0 .085.009.125l.009.085 4.509.574.23-1.772zm.602-1.782c-.164 1.332-.334 2.652-.498 3.983l-5.153-.66-.058-.191c-.01-.027-.01-.058-.019-.097 0-.04-.009-.067-.009-.107-.009-.04-.009-.085-.009-.143-.009-.048-.009-.097-.009-.164v-.173l.01-.2c0-.077 0-.144.008-.22l.019-.249q0-.1.027-.258l.027-.29.04-.288.049-.316.048-.335.058-.355.01-.04-.01-.04-.018-.085-.028-.106-.076-.231c-.018-.067-.048-.143-.067-.21-.027-.067-.057-.134-.085-.21-.03-.076-.067-.143-.097-.21-.018-.057-.058-.124-.094-.21-.049-.093-.107-.19-.164-.297a4 4 0 0 0-.174-.298c-.067-.094-.124-.192-.191-.289-.067-.085-.134-.182-.2-.267a6 6 0 0 0-.22-.259c-.067-.076-.143-.152-.219-.24a2.4 2.4 0 0 0-.24-.219c-.076-.076-.164-.152-.24-.219l-.018-.009-.307-.307c-.098-.106-.21-.219-.326-.344-.173-.2-.383-.431-.593-.69-.164-.21-.334-.431-.498-.672-.049-.066-.094-.143-.152-.228s-.107-.164-.143-.219c-.049-.067-.085-.143-.134-.219a4 4 0 0 0-.115-.21c-.028-.066-.067-.133-.095-.2l-.085-.2c-.018-.058-.048-.125-.067-.183-.018-.067-.04-.125-.057-.182a4 4 0 0 1-.107-.69 15 15 0 0 1-.027-.95c.009-.324.018-.671.04-1.024.02-.352.048-.708.075-1.052.028-.334.067-.669.095-.994.04-.334.066-.614.094-.851.067-.49.115-.842.124-.927v-.01c.03-.164.058-.288.076-.41.05-.277.095-.565.143-.851.183-1.052.393-2.098.602-3.15l.165-.018c.094 0 .164.009.258.018.085.018.152.049.24.076.028.01.058.018.107.04.997.468.66 2.44.68 3.131l.107 3.858-.192.058-.106.04c-.04.018-.076.03-.106.048-.028.01-.058.027-.085.037-.04.018-.067.04-.098.057l-.076.058c-.058.027-.106.076-.152.116q-.058.06-.115.133c-.04.05-.067.095-.107.143a1 1 0 0 0-.076.164 2 2 0 0 0-.058.174c-.018.058-.027.115-.039.182-.01.067-.01.125-.01.192 0 .076 0 .143.01.219.058.68.48 1.514 1.043 2.383.584.891 1.31 1.81 1.982 2.642l.018.028c.268.325.517.65.757.957.116.152.231.307.326.441q.16.215.276.402l.019.018.018.018.027.01.018.008.04.01a.4.4 0 0 0 .106.009l.028-.01.018-.009.027-.009.028-.018.018-.027.018-.019.018-.027.01-.027.009-.01.009-.036v-.076l-.01-.058c-.075-.508-.66-1.39-1.322-2.393l-.018-.027a36 36 0 0 1-.842-1.301 12 12 0 0 1-.402-.672c-.124-.219-.24-.44-.343-.65a6 6 0 0 1-.25-.594 3.5 3.5 0 0 1-.164-.556 1.5 1.5 0 0 1-.018-.468.8.8 0 0 1 .143-.414c.04-.048.076-.085.106-.133.03-.019.05-.04.076-.058a1 1 0 0 1 .086-.049c.027-.018.057-.04.085-.048.027-.01.057-.019.094-.04h.009a.4.4 0 0 1 .094-.018c.04-.01.076-.01.107-.018h.23l.019.009c.04 0 .076 0 .116.009l.115.027q.042 0 .116.03c.04.01.076.028.115.04a.3.3 0 0 1 .107.049c.048.018.076.027.115.048.027.019.067.04.106.067.028.018.067.04.098.067.067.049.115.088.173.143l.027.018c.152.21.298.402.432.593.134.183.25.356.356.526.115.161.21.325.307.468.085.143.173.298.258.441l.01.01c.133.24.267.458.422.68q.2.33.46.66c.172.219.373.45.622.7.24.249.526.507.873.793l.01.009.172.173c.058.067.116.134.174.192.057.067.115.134.182.2.049.067.107.134.164.201.049.076.107.143.152.2l.143.201c.04.067.085.134.125.201.048.067.085.134.124.192l.086.173q.059.089.085.164c.027.058.048.116.067.164a.7.7 0 0 1 .057.152 1 1 0 0 1 .04.134.4.4 0 0 1 .027.143c.01.04.01.076.01.125a.3.3 0 0 1 0 .124c-.077.231-.232 2.04-.232 2.058zm8.744 2.892c.01-.04.01-.076.019-.125v-.316l-.01-.183c0-.057 0-.133-.009-.21l-.018-.249-.018-.249-.04-.277-.04-.286-.039-.306-.057-.335-.058-.365c0-.027-.01-.067 0-.094v-.097l.027-.116c.04-.115.067-.25.116-.365.018-.067.048-.133.076-.219.027-.076.058-.142.085-.218l.094-.232c.04-.076.076-.152.106-.21.058-.115.116-.218.174-.325.058-.106.125-.21.182-.316.067-.085.134-.191.2-.298q.104-.128.22-.289c.076-.085.143-.182.23-.267.077-.085.153-.174.241-.259.076-.076.152-.164.25-.24.075-.076.164-.143.258-.219.04-.04.143-.143.286-.298.085-.094.191-.2.316-.334.182-.2.374-.432.574-.681.174-.2.335-.423.49-.642.058-.076.106-.152.152-.219.04-.057.085-.124.134-.21a3 3 0 0 0 .124-.21q.06-.1.107-.2a1 1 0 0 0 .094-.182c.027-.067.049-.125.076-.183.018-.057.04-.106.058-.164.018-.048.04-.106.048-.152a3.2 3.2 0 0 0 .095-.623c.018-.277.027-.584.027-.91-.01-.315-.018-.659-.04-1.005-.018-.344-.048-.7-.075-1.043-.028-.365-.067-.69-.095-.997-.027-.298-.067-.584-.097-.843-.067-.498-.116-.833-.125-.918-.018-.106-.048-.258-.067-.41l-.04-.2-.105-.652-.107-.565-.106-.584-.165-.833-.173-.86-.04.009-.094.018-.076.03-.067.028-.057.027-.049.028-.048.04-.04.039-.027.027-.04.049-.027.04-.019.039-.027.048-.018.049-.01.049-.017.067-.01.048-.009.085v.067l-.067 2.098-.094 3.572.049.019c.027.009.067.03.115.048q.072.03.116.058c.04.018.076.037.115.067.028.018.067.04.107.067.058.048.124.094.182.152s.107.115.164.173c.04.058.086.125.125.192.04.057.076.133.106.21.028.066.058.133.076.21.019.075.028.151.05.24.008.075.008.151.008.24 0 .076 0 .164-.009.249-.067.757-.508 1.648-1.11 2.566-.583.9-1.322 1.83-1.991 2.672l-.018.019c-.277.343-.535.671-.757.957-.116.143-.22.298-.326.432l-.267.392c-.018.018-.028.049-.058.067l-.018.018-.04.04-.027.018-.049.027-.027.019-.076.027a.6.6 0 0 1-.173.027h-.058l-.058-.009-.076-.009-.067-.027-.027-.01-.049-.017-.018-.019-.058-.027-.018-.018-.04-.04-.018-.018-.04-.049-.009-.018-.027-.049-.018-.018c-.027-.076-.04-.094-.058-.173v-.028a1 1 0 0 1 0-.24c.085-.584.69-1.502 1.38-2.547l.019-.028a31 31 0 0 0 1.234-1.943c.116-.219.231-.431.335-.632.085-.2.173-.383.24-.566.066-.173.115-.334.133-.489.028-.134.04-.258.028-.365a.6.6 0 0 0-.076-.23l-.067-.077-.04-.027-.04-.028a.1.1 0 0 1-.048-.018l-.067-.018c-.018-.01-.04-.01-.057-.018-.028 0-.05-.01-.076-.01h-.174c-.027.01-.058.01-.085.019a.3.3 0 0 0-.085.018c-.04 0-.067.01-.097.018q-.04.014-.095.028c-.027.018-.057.027-.085.04-.027.017-.057.027-.085.048a.3.3 0 0 0-.085.048.5.5 0 0 0-.076.049l-.067.058-.058.048c-.152.21-.297.393-.422.566q-.188.274-.344.517c-.106.152-.2.307-.298.459-.085.152-.173.298-.249.432l-.01.018c-.151.24-.285.468-.43.69-.153.231-.308.46-.49.69a10 10 0 0 1-.642.727c-.25.25-.547.517-.89.815-.05.048-.107.106-.165.164-.049.058-.106.115-.164.182s-.116.125-.173.192c-.049.067-.107.124-.152.191-.049.058-.095.125-.143.192-.049.067-.095.124-.143.191-.04.067-.085.125-.125.183-.027.058-.067.115-.106.182-.027.049-.058.107-.085.152-.028.058-.049.107-.076.152l-.058.143c-.018.04-.04.085-.049.125l-.027.115a.4.4 0 0 0-.018.107c-.01.027-.01.057-.01.085-.009.018 0 .049 0 .067l.028.307.049.44.152 1.302.219 1.83.23 1.773 4.51-.575.008-.085zm.393-.107c0 .058 0 .107-.01.143 0 .04-.009.067-.009.107-.009.039-.009.066-.018.097-.018.058-.04.125-.058.191l-5.15.66c-.134-1.064-.45-5.208-.726-6.041a.3.3 0 0 1 0-.125c0-.048 0-.085.009-.124.009-.049.018-.085.027-.143.01-.04.018-.085.04-.134.018-.049.027-.097.057-.152q.027-.075.067-.164a3 3 0 0 0 .085-.164l.085-.174c.04-.057.076-.124.125-.191.04-.067.085-.134.125-.2q.07-.102.143-.201c.048-.058.106-.125.152-.201.057-.067.115-.134.164-.2.067-.068.124-.135.182-.202.058-.057.116-.124.174-.191l.173-.173.009-.01c.344-.285.632-.544.873-.793.249-.25.45-.477.623-.7a10.6 10.6 0 0 0 .878-1.34l.01-.01c.085-.142.173-.297.258-.44.097-.143.192-.307.307-.468a7 7 0 0 1 .356-.526c.134-.192.276-.383.431-.593l.028-.018a1 1 0 0 1 .173-.143c.027-.027.067-.049.094-.067q.06-.04.107-.067c.04-.018.076-.027.115-.049a.3.3 0 0 1 .107-.048c.04-.01.076-.028.115-.04a.4.4 0 0 1 .116-.03l.115-.027c.04-.01.076-.01.116-.01l.018-.009h.231c.027.01.067.01.107.019.04 0 .067.009.106.018v.009a.5.5 0 0 1 .18.079q.042.015.084.049c.03.018.05.04.076.057.028.049.076.085.107.134a.77.77 0 0 1 .143.414 1.7 1.7 0 0 1-.018.468 3 3 0 0 1-.165.556 6 6 0 0 1-.249.593 15 15 0 0 1-.745 1.322c-.276.45-.565.891-.842 1.302l-.018.027c-.66 1.006-1.244 1.888-1.323 2.393-.009.027-.009.058-.009.085l.01.049v.036l.008.01.01.027.018.027.018.018.018.028.028.018.027.009.018.01.028.008c.048 0 .057 0 .106-.009l.04-.009.018-.01.027-.008.018-.018.019-.019c.076-.124.173-.258.276-.401.098-.134.21-.289.326-.44.24-.308.489-.633.757-.959l.018-.027c.669-.833 1.398-1.751 1.982-2.642.566-.873.985-1.706 1.043-2.384.01-.076.01-.143.01-.219 0-.066 0-.124-.01-.191a2 2 0 0 0-.097-.356 1 1 0 0 0-.076-.164c-.028-.049-.067-.094-.107-.143s-.076-.097-.115-.134c-.049-.04-.095-.085-.152-.115a1 1 0 0 0-.076-.058q-.04-.029-.098-.058c-.027-.009-.057-.027-.085-.036-.027-.018-.067-.027-.106-.049l-.107-.04-.191-.057.106-3.858c.018-.69-.316-2.66.681-3.132.04-.018.076-.027.107-.04l.094-.039c.049-.009.094-.027.143-.04.094-.008.164-.018.258-.018l.165.019c.21 1.052.422 2.098.602 3.15q.071.434.142.85c.019.125.049.25.076.411v.01c.01.084.058.44.125.927l.094.85c.04.326.067.66.095.995.027.344.057.7.076 1.052.018.356.027.7.04 1.025 0 .343-.01.672-.028.948a4 4 0 0 1-.107.69c-.018.058-.04.116-.058.183a2 2 0 0 1-.066.182l-.086.2c-.027.068-.066.135-.094.202a3 3 0 0 0-.115.21c-.049.075-.085.151-.134.218-.04.058-.085.134-.143.219s-.106.164-.152.228c-.164.24-.334.46-.499.672-.21.258-.422.49-.592.69-.116.125-.232.24-.326.344-.152.164-.267.267-.307.307l-.018.009c-.076.067-.164.143-.24.219a3 3 0 0 0-.24.219c-.076.085-.152.164-.22.24a6 6 0 0 0-.218.258c-.067.085-.134.183-.2.268-.068.097-.125.191-.192.289-.067.106-.125.2-.174.298-.057.106-.115.2-.164.298-.04.085-.076.152-.097.21-.028.066-.067.133-.094.21-.028.075-.058.142-.086.209-.018.067-.048.143-.067.21l-.075.23-.03.107-.02.085-.008.04.009.04.058.355.048.334.049.317.04.288.039.29q.017.158.018.258c.01.076.018.164.018.25.01.075.01.142.01.218l.009.2v.174c0 .067 0 .116-.01.164z"/></svg>