<svg xmlns="http://www.w3.org/2000/svg" fill="none" viewBox="0 0 25 25"><path fill="#0095bf" stroke="#0095bf" stroke-width=".6" d="M.517 3.968h11.769c.117 0 .217.1.217.226a.2.2 0 0 1-.026.089 6.4 6.4 0 0 0-.377 1.173 6 6 0 0 0-.126 1.224c0 2.36 2.804 6.776 4.758 9.869.46.72.864 1.359 1.19 1.9.324-.541.73-1.182 1.19-1.9.928-1.46 2.038-3.216 2.956-4.913a.21.21 0 0 1 .29-.089.22.22 0 0 1 .116.19V24.2c0 .126-.1.217-.217.217H.517A.214.214 0 0 1 .3 24.2V4.194c0-.126.1-.226.217-.226Zm11.445.44H.735v19.574h21.302V12.574c-.83 1.48-1.766 2.948-2.558 4.21a64 64 0 0 0-1.362 2.197c-.017.037-.055.063-.089.091a.23.23 0 0 1-.297-.08c-.335-.578-.822-1.342-1.371-2.209-1.983-3.136-4.821-7.625-4.821-10.103 0-.449.046-.892.134-1.316.072-.335.172-.65.29-.956Z"/><path fill="#0095bf" stroke="#0095bf" stroke-width=".6" d="M.463 11.888 12.07 8.772l.117.412L.572 12.303zM22.12 24.372l-11.5-9.113.27-.332 11.499 9.101z"/><path fill="#0095bf" stroke="#0095bf" stroke-width=".6" d="M13.684 12.025c.08-.08.226-.08.307.009a.225.225 0 0 1-.01.306L1.276 24.36l-.297-.314 12.706-12.023zM9.862 7.754 4.7 4.374l.232-.369 7.525 4.927-.235.361z"/><path fill="#0095bf" stroke="#0095bf" stroke-width=".6" d="M17.92.3a6.37 6.37 0 0 1 4.515 1.874A6.36 6.36 0 0 1 24.3 6.68c0 2.478-2.838 6.968-4.821 10.104-.55.864-1.036 1.63-1.37 2.208a.23.23 0 0 1-.298.08.3.3 0 0 1-.08-.08c-.335-.578-.821-1.342-1.37-2.209v-.017c-1.992-3.136-4.822-7.605-4.822-10.083a6.386 6.386 0 0 1 6.38-6.38zm4.209 2.18a5.96 5.96 0 0 0-4.21-1.74c-1.639 0-3.127.667-4.2 1.74a5.9 5.9 0 0 0-1.748 4.2c0 2.352 2.793 6.767 4.75 9.86l.008.009c.461.72.864 1.359 1.19 1.9.324-.541.73-1.182 1.19-1.9 1.955-3.09 4.76-7.508 4.76-9.869 0-1.64-.668-3.127-1.74-4.2Z"/><path fill="#0095bf" stroke="#0095bf" stroke-width=".6" d="M17.92 2.669a3.8 3.8 0 0 1 2.712 1.127A3.84 3.84 0 0 1 21.76 6.51c0 1.053-.432 2.02-1.128 2.712a3.82 3.82 0 0 1-2.712 1.128 3.8 3.8 0 0 1-2.713-1.128A3.8 3.8 0 0 1 14.08 6.51a3.8 3.8 0 0 1 1.127-2.713A3.82 3.82 0 0 1 17.92 2.67Zm2.406 1.433a3.4 3.4 0 0 0-2.406-.992c-.939 0-1.794.377-2.406.992a3.42 3.42 0 0 0-1.002 2.407c0 .938.386 1.794 1.002 2.406a3.37 3.37 0 0 0 2.406 1.002 3.36 3.36 0 0 0 2.406-1.002 3.39 3.39 0 0 0 0-4.813Z"/><path fill="#0095bf" stroke="#0095bf" stroke-width=".6" d="M17.92 4.102a.216.216 0 0 1-.218-.217c0-.117.1-.218.218-.218.784 0 1.496.315 2.008.83.512.524.83 1.225.83 2.009 0 .126-.1.217-.217.217a.214.214 0 0 1-.218-.217 2.4 2.4 0 0 0-.704-1.694 2.38 2.38 0 0 0-1.702-.712z"/></svg>