<svg xmlns="http://www.w3.org/2000/svg" fill="none" viewBox="0 0 24 24"><path fill="#0095bf" d="M6.45.083c-.174.09-4.173 4.07-4.28 4.262-.075.131-.08.684-.08 7.454 0 7.014.005 7.323.089 7.572.169.502.544.956.961 1.167.469.244.394.24 5.284.24h4.557l.06.173c.179.558.62 1.252 1.098 1.725 2.166 2.166 5.85 1.594 7.257-1.13.694-1.355.685-3-.028-4.285-.68-1.223-1.735-1.992-3.183-2.316l-.132-.028v-6.54c0-4.665-.014-6.606-.051-6.784-.16-.75-.713-1.313-1.482-1.514-.412-.108-9.86-.104-10.07.004m9.873 1.402c.075.042.183.14.23.225.094.145.094.286.094 6.676v6.531l-.127.028c-1.031.235-1.71.59-2.381 1.257-.746.74-1.233 1.758-1.327 2.77l-.033.375-4.407.014c-4.116.014-4.416.01-4.562-.07-.337-.173-.309.385-.314-7.126v-6.76L5.24 5.39c1.674-.014 1.75-.018 1.871-.112.07-.052.173-.155.225-.225.094-.122.098-.197.113-1.885l.014-1.753h4.36c3.844 0 4.379.01 4.5.07m-10.31 2.47c-.023.024-.36.029-.754.01l-.717-.033.745-.745.741-.74.014.735c.005.403-.005.75-.028.774m11.984 12.397c.59.117 1.088.393 1.561.862.329.324.441.474.596.797.108.22.23.525.267.68.084.319.099 1.013.028 1.36-.216 1.092-1.04 2.025-2.119 2.39-.352.118-.46.137-.98.137-.525 0-.628-.014-.984-.136a3.16 3.16 0 0 1-2.157-3 3.14 3.14 0 0 1 3.788-3.09"/><path fill="#0095bf" d="M5.474 6.999a.63.63 0 0 0-.346.197c-.141.135-.174.206-.193.412-.028.3.07.511.314.666l.17.103h4.64c4.558 0 4.647 0 4.801-.094.258-.15.357-.323.357-.61 0-.285-.099-.459-.352-.604-.15-.09-.29-.094-4.683-.099-2.49 0-4.61.01-4.708.029M5.484 9.708c-.338.07-.558.324-.558.652 0 .277.117.502.323.628l.17.108h4.64c4.558 0 4.647 0 4.801-.094.253-.15.357-.323.357-.6a.68.68 0 0 0-.366-.633c-.14-.075-.478-.08-4.674-.084-2.49-.005-4.6.005-4.693.023M5.264 12.62c-.469.286-.445.984.038 1.233.155.075.46.08 4.815.07 4.613-.014 4.65-.014 4.777-.112.206-.15.31-.32.333-.54a.7.7 0 0 0-.361-.656c-.155-.084-.375-.089-4.806-.089-4.547 0-4.646 0-4.796.094M5.278 15.428c-.248.155-.323.272-.337.558-.024.338.089.54.375.666.182.084.323.094 2.09.094 1.806 0 1.909-.005 2.092-.094a.695.695 0 0 0 .075-1.205l-.16-.108H7.416c-1.861 0-2.007.005-2.138.09M17.143 16.98a.8.8 0 0 0-.253.15c-.22.206-.244.333-.244 1.43 0 .881.01 1.045.085 1.186.248.502.99.502 1.238 0 .075-.14.084-.31.084-1.224 0-1.022-.005-1.064-.103-1.214-.202-.295-.511-.422-.807-.328M17.115 20.641c-.262.108-.468.399-.468.661 0 .38.318.694.703.694.731 0 .97-.99.314-1.308-.22-.108-.366-.117-.549-.047"/></svg>