<svg xmlns="http://www.w3.org/2000/svg" fill="none" viewBox="0 0 24 24"><path fill="#0095bf" fill-rule="evenodd" d="M11.994 23.076q-9-4.036-9-8.055V4.95c0-.772.295-.952 1.11-1.449.247-.15.542-.33.89-.564.162-.109 3.563-2.014 7-2.014 2.995 0 5.5 1.007 7 2.014.349.234.643.414.89.564.816.497 1.11.677 1.11 1.45.02.219.01 4.87.004 7.848l-.004 2.22q0 4.028-9 8.056m7-8.055.002-1.254L19 11.8l.003-1.703c.004-2.248.003-4.177 0-4.773l-.137-.086c-.323-.202-.744-.465-.981-.624-1.477-.991-3.63-1.676-5.89-1.676-2.163 0-4.972 1.059-5.891 1.676a44 44 0 0 1-.982.624l-.128.08v9.703c0 1.519 2.23 3.593 7.001 5.842 4.771-2.244 7-4.317 7-5.842m-3.707-6.754-4.293 4.323-2.293-2.309-1.414 1.424 3.707 3.733 5.707-5.747z" clip-rule="evenodd"/></svg>