<svg xmlns="http://www.w3.org/2000/svg" fill="none" viewBox="0 0 24 24"><path fill="#0095bf" fill-rule="evenodd" d="M4.222 19.832c-.924-.93-1.19-2.35-.9-4.213C1.81 14.51 1 13.316 1 12s.81-2.508 2.322-3.62c-.29-1.862-.024-3.281.9-4.212s2.334-1.197 4.184-.905C9.509 1.739 10.693.924 12 .924s2.491.815 3.594 2.339c1.85-.292 3.26-.025 4.184.905s1.19 2.35.9 4.213C22.19 9.49 23 10.684 23 12c0 1.315-.81 2.508-2.322 3.618.29 1.863.024 3.282-.9 4.213-.924.93-2.334 1.197-4.184.906-1.103 1.523-2.287 2.338-3.594 2.338s-2.491-.815-3.594-2.338c-1.85.291-3.26.024-4.184-.906m4.43-1.188a1 1 0 0 1 1.05.437c.88 1.37 1.666 1.981 2.298 1.981s1.418-.61 2.299-1.981a1 1 0 0 1 1.048-.437c1.586.341 2.57.214 3.017-.236s.573-1.442.234-3.037a1.01 1.01 0 0 1 .434-1.057C20.394 13.428 21 12.637 21 12s-.607-1.427-1.968-2.314a1.01 1.01 0 0 1-.434-1.056c.34-1.596.213-2.587-.234-3.038s-1.431-.577-3.017-.235a1 1 0 0 1-1.048-.438C13.418 3.55 12.632 2.94 12 2.94s-1.418.61-2.299 1.98a1 1 0 0 1-1.048.438c-1.585-.342-2.57-.215-3.017.235s-.573 1.442-.234 3.038a1.01 1.01 0 0 1-.434 1.056C3.607 10.573 3 11.363 3 12s.607 1.428 1.968 2.314c.348.228.521.648.434 1.057-.34 1.595-.213 2.587.234 3.037s1.432.577 3.017.236m6.64-10.377L11 12.59l-2.293-2.31-1.414 1.424L11 15.438l5.707-5.747z" clip-rule="evenodd"/></svg>