<svg xmlns="http://www.w3.org/2000/svg" fill="none" viewBox="-1 0 24 19"><path fill="#0095bf" fill-rule="evenodd" d="M17 13.09v2.013c2.761 0 5-2.254 5-5.034 0-2.532-1.857-4.628-4.275-4.982C16.875 2.12 14.16 0 11 0a6.98 6.98 0 0 0-5.78 3.071C2.267 3.457 0 6 0 9.062c0 2.994 2.162 5.479 5 5.958v-2.057a4.024 4.024 0 0 1-3-3.901c0-2.164 1.7-3.94 3.84-4.024l.55-.022.276-.481A4.99 4.99 0 0 1 11 2.014c2.451 0 4.53 1.788 4.93 4.195l.144.858.863-.018H17c1.657 0 3 1.352 3 3.02a3.01 3.01 0 0 1-3 3.02m-7-5.035v6.297l-2.293-2.26-1.414 1.394L11 18.124l4.707-4.638-1.414-1.394L12 14.352V8.055z" clip-rule="evenodd"/></svg>