<svg xmlns="http://www.w3.org/2000/svg" fill="none" viewBox="0 0 24 24"><path fill="#0095bf" fill-rule="evenodd" d="M15.966 3c.585 0 1.146.235 1.556.651l2.77 2.79a2.223 2.223 0 0 1 0 3.133L10.175 19.76C9.55 20.485 8.665 20.93 7.651 21H3.063v-.9l.002-3.793c.077-.949.515-1.831 1.183-2.424l10.16-10.23A2.19 2.19 0 0 1 15.967 3M7.588 19.203c.478-.035.922-.258 1.28-.67l6.758-6.804L12.27 8.35l-6.798 6.843c-.362.323-.586.774-.622 1.187v2.82zm5.946-12.125 3.355 3.378 2.14-2.154a.417.417 0 0 0 0-.588l-2.774-2.793a.406.406 0 0 0-.579 0z" clip-rule="evenodd"/></svg>