<svg xmlns="http://www.w3.org/2000/svg" fill="none" viewBox="-2 -2 24 24"><path fill="#0095bf" d="m19.823 3.973-6.065 6.026 6.065 6.027c.11-.23.177-.483.177-.753V4.726c0-.27-.067-.524-.177-.753m-1.582-1.004H1.757c-.27 0-.524.066-.753.176l7.752 7.713a1.76 1.76 0 0 0 2.486 0l7.752-7.713a1.7 1.7 0 0 0-.753-.176M.176 3.973A1.7 1.7 0 0 0 0 4.726v10.547c0 .27.067.524.176.753l6.066-6.027z"/><path fill="#0095bf" d="m12.929 10.828-.859.858a2.933 2.933 0 0 1-4.142 0l-.859-.858-6.065 6.027c.23.11.482.176.753.176h16.484c.271 0 .524-.067.753-.176z"/></svg>