<svg xmlns="http://www.w3.org/2000/svg" fill="none" viewBox="-3 0 24 16"><path fill="#0095bf" fill-rule="evenodd" d="M12.28 0c-1.143 0-1.88.137-2.724.553q-.47.231-.879.557a5 5 0 0 0-.843-.531C6.973.15 6.198 0 5.096 0 2.145 0 0 2.462 0 5.66c0 2.415 1.337 4.748 3.828 7.004 1.308 1.184 2.977 2.356 4.173 2.98l.684.356.684-.357c1.196-.623 2.865-1.795 4.173-2.979 2.49-2.256 3.828-4.589 3.828-7.004 0-3.164-2.165-5.648-5.09-5.66m3.51 5.66c0 1.892-1.115 3.84-3.304 5.822-1.194 1.08-2.728 2.16-3.801 2.727-1.073-.566-2.607-1.646-3.8-2.727-2.19-1.983-3.306-3.93-3.306-5.822 0-2.363 1.487-4.07 3.517-4.07.876 0 1.416.104 2.038.414q.55.274.972.726l.58.624.577-.63q.43-.469.987-.743c.603-.297 1.11-.391 2.027-.391 2.005.008 3.514 1.74 3.514 4.07" clip-rule="evenodd"/></svg>