<svg xmlns="http://www.w3.org/2000/svg" fill="none" viewBox="0 0 36 20"><path fill="red" d="M16.147.12c.048.146.267.609.397.83.144.262.329.435.404.386.035-.02.048-.007.028.028-.041.07.02.159.54.725.357.387.323.442-.328.505-.315.027-.658.069-.774.082-.528.076-3.083.097-3.343.028a5 5 0 0 0-.699-.11c-.41-.035-.555-.07-1.267-.27a4 4 0 0 0-.425-.11c-.096 0-.055.214.117.594.095.207.17.393.17.407 0 .131.816.933.953.933.034 0 .096.048.144.103.048.056.205.138.35.187.15.041.266.103.266.138 0 .028.048.055.103.055.062 0 .213.042.343.097.329.145.26.338-.158.449-.335.083-1.336.242-2.343.359-.746.097-3.473.048-3.672-.062-.082-.042-.322-.09-.534-.104-.212-.02-.411-.048-.432-.076-.054-.055-.363-.055-.363.007 0 .076.37.539.877 1.092.329.352.774.911.925 1.153.103.166.15.38.103.408-.014.007-1.268.034-2.795.062-2.514.048-2.816.069-3.234.193-.623.187-1.034.4-1.288.67L0 9.1l.72.076c.397.042.78.11.842.145.068.035.322.11.562.173.48.131 1.582.539 1.877.704.103.063.24.09.294.07.055-.021.09-.014.069.013-.048.076.98.58 1.069.525.04-.027.061-.02.04.014-.054.076 1.706.947 2.31 1.14.15.048.308.11.342.138.082.055.72.242 1.288.373.472.104.486.117.431.345-.034.138-.068.16-.164.11-.062-.034-.5-.096-.973-.137a27 27 0 0 1-1.267-.138 15 15 0 0 0-.87-.104l-.46-.042.11.325c.178.518.35.78.843 1.278.678.677 1.514 1.043 2.706 1.174.336.035.726.097.856.125.13.034.726.096 1.316.13.589.042 1.205.104 1.37.146.164.034.527.11.808.159.582.11 1.267.297 1.432.387.089.055.068.076-.096.11-.117.028-.445.173-.733.325-.541.27-.973.387-2.213.594-.377.055-.699.131-.706.166-.013.027-.054.041-.089.013-.102-.062-.068.09.062.235.062.076.315.207.562.29s.493.173.548.208c.192.096 1.528.4 2.124.483 1.274.187 1.527.2 2.966.2 1.007.007 1.486.028 1.486.083 0 .042-.15.214-.342.387-.185.173-.343.338-.343.366s.178.07.398.09c.212.028.698.076 1.075.117.74.09 1.323.063 2.412-.117.698-.11.712-.11 1.404.055.63.152.856.166 2.179.166l1.472-.007.925-.262c1.72-.49 3.186-1.334 4.344-2.5.616-.63 1.41-1.59 1.41-1.714 0-.014.11-.193.24-.394.13-.207.24-.407.24-.455s.028-.09.062-.09.082-.104.11-.228a1.5 1.5 0 0 1 .13-.36c.075-.124.28-.69.514-1.43.047-.144.061-.29.04-.33-.02-.035-.013-.07.014-.07.103 0 .26-1.298.254-2.072 0-.677-.123-1.63-.295-2.349-.157-.649-.445-1.443-.507-1.402-.04.021-.048.007-.02-.034.034-.062-.33-.864-.596-1.292-.802-1.312-2.028-2.576-3.234-3.33-.377-.234-1.562-.849-1.644-.849-.027 0-.144-.048-.26-.103-.596-.277-2.049-.525-3.165-.54-1.007-.013-2.364.139-2.22.243.076.048.062.055-.027.027-.123-.041-.754.104-1.041.235-.692.318-1.309.408-1.747.256-.055-.021-.35-.056-.651-.083-.781-.056-2.864-.38-2.94-.456a.46.46 0 0 0-.246-.062c-.102 0-.35-.056-.555-.118a5 5 0 0 0-.418-.117.2.2 0 0 1-.095-.062c-.096-.097-.226-.049-.192.069m11.296 2.252c.117.028.377.083.583.125s.41.103.445.131c.041.028.164.07.274.097.452.11 1.507.69 2.33 1.298.595.436 1.883 2.12 2.054 2.68.028.097.083.235.13.311.048.076.124.276.179.45.048.172.116.338.143.38.028.034.069.192.09.344.027.152.075.45.116.657.123.628.123 1.637 0 2.452-.116.739-.397 1.775-.5 1.816-.034.014-.055.07-.055.132 0 .117-.418.939-.493.974-.034.013-.055.055-.055.09 0 .096-.76 1.098-.829 1.098-.034 0-.061.048-.061.103 0 .056-.021.104-.048.104-.035 0-.2.131-.37.297-.507.463-.877.732-1.432 1.022a3 3 0 0 0-.343.207c-.048.063-.883.394-1.13.442-.11.028-.343.097-.514.16-.253.096-.575.117-1.815.11-1.453 0-1.528-.007-2.055-.187-.302-.103-.603-.186-.665-.186-.068 0-.123-.035-.123-.07 0-.04-.041-.068-.09-.068-.164 0-1.3-.629-1.691-.933-.713-.56-1.576-1.499-1.823-1.982a1.6 1.6 0 0 0-.157-.263c-.123-.096-.5-.953-.713-1.595-.328-1.002-.431-2.01-.328-3.226.04-.497.116-1.05.178-1.236l.178-.574c.04-.131.185-.47.315-.753.123-.283.22-.552.199-.6-.021-.049 0-.077.047-.063.048.014.22-.193.391-.463.171-.276.541-.732.822-1.022.528-.539 1.596-1.333 2.09-1.547.15-.062.328-.152.404-.187.24-.138 1.123-.4 1.486-.449.206-.027.418-.069.473-.103.123-.062 2.062-.042 2.363.027"/><path fill="red" d="m26.216 5.077-.191.086-.023 2.495c-.008 1.788.008 2.528.069 2.587.046.053.298.152.558.225.252.066.711.204 1.002.303.299.093.727.218.956.277.23.06.436.126.46.146.022.02.19.079.382.132.191.052.428.132.535.178s.238.086.291.086.26.059.451.138c.192.073.39.119.452.1.06-.02.107-.014.107.012s.084.08.183.12c.161.065.215.052.345-.08.237-.238.275-.442.091-.58-.091-.073-.206-.106-.29-.08-.07.026-.107.026-.085 0 .031-.02-.282-.145-.688-.264s-.803-.25-.872-.29a.8.8 0 0 0-.23-.066 1 1 0 0 1-.29-.086 12 12 0 0 0-.956-.304c-.421-.119-.949-.29-1.163-.376l-.405-.159V5.123l-.2-.066c-.244-.08-.26-.08-.489.02"/></svg>