<svg xmlns="http://www.w3.org/2000/svg" fill="none" viewBox="0 -0.5 19 24"><path fill="#0095bf" fill-rule="evenodd" d="M9 22.152q-9-4.038-9-8.055V4.027c0-.772.295-.952 1.11-1.45.247-.15.541-.33.89-.563C2.162 1.905 5.563 0 9 0c2.995 0 5.5 1.007 7 2.014.349.234.643.413.89.564.815.497 1.11.677 1.11 1.45.02.218.01 4.87.004 7.848L18 14.096q0 4.028-9 8.056m7-8.055.002-1.254.004-1.967.003-1.703c.004-2.248.003-4.177 0-4.774l-.137-.085a44 44 0 0 1-.981-.625C13.414 2.7 11.26 2.014 9 2.014c-2.162 0-4.971 1.058-5.89 1.675-.237.16-.659.423-.982.625L2 4.394v9.703c0 1.518 2.23 3.593 7 5.841 4.772-2.243 7-4.317 7-5.841m-3.707-6.754L8 11.666l-2.293-2.31-1.414 1.425L8 14.514l5.707-5.747z" clip-rule="evenodd"/></svg>