<svg xmlns="http://www.w3.org/2000/svg" fill="none" viewBox="0 0 30 24"><path fill="#0095bf" d="M17.612.064c-.284.129-.355.298-.355.84 0 .467.05.62.257.775l.125.099h4.043l.125-.099c.207-.155.258-.308.258-.775 0-.542-.071-.711-.356-.84C21.584.007 21.445 0 19.661 0s-1.923.007-2.049.064m1.155 2.089c-.034.092-.02 1.141.017 1.283a.7.7 0 0 0 .42.42c.074.02.257.038.406.038.325 0 .569-.099.697-.275.078-.111.082-.132.082-.809v-.694l-.8-.01c-.707-.007-.802-.004-.822.047"/><path fill="#0095bf" d="M17.714 3.474a10.4 10.4 0 0 0-6.91 4.693 13.4 13.4 0 0 0-.874 1.747 10.37 10.37 0 0 0 3.423 12.002 10.2 10.2 0 0 0 6.545 2.08c1.56-.045 2.867-.373 4.293-1.08a10.3 10.3 0 0 0 5.573-7.392c.233-1.273.22-2.682-.037-3.945-.4-1.967-1.331-3.707-2.767-5.176a10.3 10.3 0 0 0-5.607-2.946 2.6 2.6 0 0 0-.413-.05c-.013.01-.027.05-.027.087 0 .132-.138.362-.308.515-.565.508-1.686.433-2.153-.142a1 1 0 0 1-.186-.332c-.024-.081-.058-.15-.078-.146-.017 0-.23.04-.474.085m2.776 1.98c3.383.356 6.247 2.841 7.09 6.146a8.27 8.27 0 0 1-4.317 9.44 8.23 8.23 0 0 1-9.51-1.555c-1.924-1.923-2.767-4.631-2.283-7.33a8.26 8.26 0 0 1 4.483-5.908 8.2 8.2 0 0 1 4.537-.792"/><path fill="#0095bf" d="M19.447 7.063c-.013.013-.023 1.307-.023 2.878v2.85l-.098.024c-.14.03-.393.22-.508.376-.495.67-.017 1.645.809 1.652.433.004.789-.21.972-.582.08-.163.094-.234.091-.464a.94.94 0 0 0-.223-.66c-.092-.119-.353-.298-.471-.322l-.098-.024-.007-2.864-.01-2.868-.203-.01c-.116-.007-.217 0-.23.014m1.973 4.229c-.49.49-.887.9-.88.907.01.007.081.037.16.071.175.078.351.258.476.484l.095.176.894-.893.897-.898-.372-.372-.372-.372zM4.902 5.167a.76.76 0 0 0-.396.51.76.76 0 0 0 .4.803l.175.088h2.452c1.842 0 2.488-.01 2.593-.04.173-.054.403-.278.46-.45a.78.78 0 0 0-.31-.888l-.143-.094-2.522-.01-2.526-.007zM2.16 8.82a.77.77 0 0 0-.512.704c0 .291.15.532.424.677l.135.075h5.824l.135-.075a.75.75 0 0 0 .423-.69.755.755 0 0 0-.565-.711c-.071-.017-1.385-.027-2.922-.027-2.265 0-2.82.01-2.942.047M.463 12.632a.753.753 0 0 0-.244 1.226c.244.237.055.227 3.728.227 2.076 0 3.349-.014 3.427-.034.162-.044.4-.254.474-.42.138-.308.02-.718-.268-.917l-.149-.102-3.44-.007c-2.217-.003-3.474.007-3.528.027m1.795 3.786a.74.74 0 0 0-.342 1.297c.078.067.21.138.29.159.184.047 5.621.05 5.818.006a.755.755 0 0 0 .565-.728c0-.297-.149-.531-.44-.684-.112-.06-.257-.064-2.946-.067-1.554-.004-2.881.003-2.945.017m2.729 3.711a.87.87 0 0 0-.447.447c-.115.3.02.697.298.883l.142.092 2.505.01c1.764.007 2.546 0 2.638-.027a.8.8 0 0 0 .26-.156c.177-.16.251-.359.23-.623-.02-.27-.145-.457-.395-.586l-.187-.091H7.577c-2.005.003-2.482.01-2.59.05"/></svg>