<svg xmlns="http://www.w3.org/2000/svg" fill="none" viewBox="0 0 23 24"><path fill="#0095bf" d="m22.696 15.05-1.776-1.5a9.5 9.5 0 0 0 0-3.096l1.776-1.5a.86.86 0 0 0 .252-.943l-.024-.07a11.9 11.9 0 0 0-2.161-3.694l-.049-.056a.87.87 0 0 0-.952-.255l-2.204.775a9.6 9.6 0 0 0-2.704-1.543L14.43.89a.86.86 0 0 0-.242-.452.87.87 0 0 0-.458-.237L13.656.19a12.4 12.4 0 0 0-4.312 0l-.073.013a.87.87 0 0 0-.458.237.86.86 0 0 0-.242.452l-.428 2.287a9.6 9.6 0 0 0-2.685 1.538l-2.22-.78a.88.88 0 0 0-.952.255l-.049.056A11.9 11.9 0 0 0 .076 7.941l-.024.07a.85.85 0 0 0 .252.943l1.798 1.516A9.3 9.3 0 0 0 1.977 12c0 .514.04 1.028.125 1.53L.304 15.044a.86.86 0 0 0-.252.943l.024.07a11.9 11.9 0 0 0 2.161 3.694l.049.056a.87.87 0 0 0 .952.255l2.22-.78a9.5 9.5 0 0 0 2.685 1.538l.428 2.287a.86.86 0 0 0 .242.452.87.87 0 0 0 .458.237l.073.013a12.3 12.3 0 0 0 4.312 0l.073-.013a.87.87 0 0 0 .458-.237.86.86 0 0 0 .242-.452l.425-2.277a9.5 9.5 0 0 0 2.704-1.543l2.204.775a.88.88 0 0 0 .952-.255l.049-.056a11.9 11.9 0 0 0 2.161-3.694l.024-.07a.85.85 0 0 0-.252-.937m-3.701-4.28a7.5 7.5 0 0 1 0 2.47l-.179 1.074 2.026 1.712a10 10 0 0 1-1.156 1.971l-2.516-.881-.851.691a7.6 7.6 0 0 1-2.15 1.227l-1.034.383-.485 2.598c-.766.086-1.54.086-2.305 0l-.486-2.603-1.025-.389A7.6 7.6 0 0 1 6.7 17.8l-.851-.694-2.533.89a10 10 0 0 1-1.155-1.972l2.047-1.728-.176-1.071c-.065-.4-.1-.812-.1-1.22 0-.409.032-.819.1-1.218l.176-1.071-2.047-1.728q.462-1.05 1.155-1.972l2.533.89.851-.694a7.6 7.6 0 0 1 2.134-1.224l1.028-.384L10.348 2a10.4 10.4 0 0 1 2.304 0l.486 2.598 1.033.383c.778.29 1.502.702 2.15 1.227l.852.691 2.516-.881c.461.613.846 1.275 1.155 1.971L18.82 9.701zm-7.492-3.748c-2.636 0-4.773 2.111-4.773 4.715s2.137 4.715 4.773 4.715 4.772-2.111 4.772-4.715-2.137-4.715-4.772-4.715m2.147 6.837a3.03 3.03 0 0 1-2.147.878 3.05 3.05 0 0 1-2.807-1.851 2.971 2.971 0 0 1 .66-3.27 3.03 3.03 0 0 1 2.147-.88 3.03 3.03 0 0 1 2.807 1.852 2.971 2.971 0 0 1-.66 3.27"/></svg>