<svg xmlns="http://www.w3.org/2000/svg" fill="none" viewBox="0 0 26 24"><path fill="#0095bf" fill-rule="evenodd" d="M8 4V3a3 3 0 0 1 3-3h4a3 3 0 0 1 3 3v1h5a3 3 0 0 1 3 3v3.708a3 3 0 0 1-1.001 2.238L25 13v8a3 3 0 0 1-3 3H4a3 3 0 0 1-3-3v-8l.001-.054A3 3 0 0 1 0 10.708V7a3 3 0 0 1 3-3zm2-1a1 1 0 0 1 1-1h4a1 1 0 0 1 1 1v1h-6zm5.914 13.715L23 13.932V21a1 1 0 0 1-1 1H4a1 1 0 0 1-1-1v-7.068l7.086 2.783a3.001 3.001 0 0 0 5.828 0M14 15.977v.04a1 1 0 1 1-2-.04V15h2zm2-1.444 7.366-2.894a1 1 0 0 0 .634-.93V7a1 1 0 0 0-1-1H3a1 1 0 0 0-1 1v3.708a1 1 0 0 0 .634.931L10 14.533V14a1 1 0 0 1 1-1h4a1 1 0 0 1 1 1z" clip-rule="evenodd"/></svg>