<svg xmlns="http://www.w3.org/2000/svg" fill="none" viewBox="0 0 32 32"><path fill="#0095bf" fill-rule="evenodd" d="M16 27.076C9.925 27.076 5 22.117 5 16S9.925 4.924 16 4.924 27 9.883 27 16s-4.925 11.076-11 11.076m7.4-5.916A9.06 9.06 0 0 0 25 16c0-5.005-4.03-9.062-9-9.062S7 10.995 7 16c0 1.917.591 3.696 1.6 5.16 1.126-1.497 3.77-2.14 7.4-2.14s6.274.643 7.4 2.14m-1.435 1.626c-.293-1.06-2.396-1.752-5.965-1.752s-5.672.693-5.965 1.752A8.93 8.93 0 0 0 16 25.062c2.288 0 4.377-.86 5.965-2.276M16 9.96c-2.42 0-4 1.768-4 4.027 0 3.451 1.76 5.035 4 5.035 2.218 0 4-1.531 4-4.833 0-2.295-1.586-4.23-4-4.23m-2 4.027c0 2.285.818 3.02 2 3.02 1.178 0 2-.706 2-2.818 0-1.259-.784-2.216-2-2.216-1.266 0-2 .822-2 2.014" clip-rule="evenodd" style="mix-blend-mode:multiply"/></svg>