<svg xmlns="http://www.w3.org/2000/svg" fill="none" viewBox="0 0 32 32"><path fill="#0095bf" fill-rule="evenodd" d="M12.996 5.931c.752-.641 1.843-1.007 3.004-1.007 1.16 0 2.252.366 3.004 1.007H20c1.105 0 2 .902 2 2.014h1c1.105 0 2 .901 2 2.014v15.103a2.007 2.007 0 0 1-2 2.014H9c-1.105 0-2-.902-2-2.014V9.959c0-1.113.895-2.014 2-2.014h1c0-1.112.895-2.014 2-2.014zM20 10.966c.74 0 1.387-.405 1.732-1.007H23v15.103H9V9.959h1.268A2 2 0 0 0 12 10.966zm-8 9.062v-2.014h6v2.014zm0-6.042V16h8v-2.014zm1.858-6.041.299-.347c.328-.381 1.032-.66 1.843-.66s1.515.279 1.843.66l.3.347H20v1.007h-8V7.945z" clip-rule="evenodd" style="mix-blend-mode:multiply"/></svg>