<svg xmlns="http://www.w3.org/2000/svg" fill="none" viewBox="0 0 32 32"><path fill="#0095bf" fill-rule="evenodd" d="M19.03 7.51 17.58 4.925h-3.136L12.99 7.503l-.81.336-2.838-.797-2.215 2.23.78 2.858-.34.816L5 14.406v3.155l2.558 1.468.335.818-.791 2.857 2.216 2.23 2.837-.786.812.343 1.448 2.584h3.135l1.457-2.575.811-.337 2.838.796 2.217-2.232-.78-2.857.34-.818L27 17.594v-3.158l-2.56-1.464-.335-.817.791-2.858-2.218-2.23-2.838.785zM14.39 9.1l1.22-2.162h.803l1.211 2.163 2.08.877 2.383-.66.57.573-.663 2.391.86 2.098L25 15.608v.809l-2.148 1.22-.872 2.097.656 2.397-.569.572-2.375-.666-2.083.865-1.221 2.16h-.805L14.371 22.9l-2.079-.878-2.383.66-.567-.57.662-2.393-.86-2.097L7 16.391v-.81l2.147-1.22.873-2.094-.657-2.399.567-.57 2.376.667zM20 16c0-2.223-1.79-4.027-4-4.027S12 13.777 12 16s1.791 4.027 4 4.027 4-1.803 4-4.027m-2 0a2.007 2.007 0 0 1-2 2.014c-1.105 0-2-.901-2-2.014s.895-2.013 2-2.013 2 .901 2 2.013" clip-rule="evenodd" style="mix-blend-mode:multiply"/></svg>