<svg xmlns="http://www.w3.org/2000/svg" fill="none" viewBox="-5.5 0 24 16"><path fill="#0095bf" fill-rule="evenodd" d="m6.405 16 .468-.412c3.937-3.46 5.938-6.482 5.938-9.139C12.81 2.688 9.895 0 6.405 0S0 2.688 0 6.45c0 2.656 2 5.678 5.937 9.138zm0-1.91c-3.34-3.03-4.982-5.599-4.982-7.64 0-2.941 2.252-5.017 4.982-5.017s4.982 2.076 4.982 5.016c0 2.042-1.641 4.61-4.982 7.642m0-11.224c1.966 0 3.559 1.605 3.559 3.583 0 1.98-1.593 3.584-3.559 3.584-1.965 0-3.558-1.605-3.558-3.584 0-1.978 1.593-3.583 3.558-3.583M4.27 6.45c0-1.187.956-2.15 2.135-2.15 1.18 0 2.135.963 2.135 2.15 0 1.188-.956 2.15-2.135 2.15A2.14 2.14 0 0 1 4.27 6.45" clip-rule="evenodd"/></svg>