<svg xmlns="http://www.w3.org/2000/svg" fill="none" viewBox="0 0 42 42"><path fill="#0095bf" fill-rule="evenodd" d="M6.505 9.95c3.769-.574 7.616.29 10.777 2.422q.336-.265.686-.51c4.027-2.759 9.534-2.124 14.04-1.296l.014 8.123c-.341.161-.69.38-1.018.574-.033-2.605-.01-5.257-.014-7.866-4.061-1.096-9.689-.893-13.132 1.722l.005 7.456.001 7.491c3.438-1.748 5.858-2.085 9.713-1.84.254.277.176.425.205.884-.222.13-2.682.045-3.258.09-1.387.105-2.44.24-3.793.643-.98.292-2.662 1.48-3.426 1.525-.51.03-2.404-1.09-3.093-1.353-3.534-1.352-8.095-.9-11.646.017l.003-17.428c1.23-.326 2.676-.51 3.936-.655m1.644.897c-1.654.106-2.952.21-4.577.53l.01 15.335c3.597-.612 5.92-.797 9.549-.093 1.451.454 2.254.772 3.573 1.526l.009-14.915c-2.247-2.03-5.657-2.422-8.564-2.383" clip-rule="evenodd"/><path fill="#0095bf" d="M7.78 16.31c1.445-.13 5.74.101 6.314 1.577l-.133.142c-.373.062-.517-.045-.866-.204l-.132-.06c-2.324-1.038-4.196-.588-6.587-.767-.187-.014-.211-.166-.284-.315l.104-.188c.398-.202 1.112-.173 1.583-.185M6.14 13.374c1.877-.06 6.586-.26 7.946 1.215.1.365.101.212-.092.614-1.52-.652-2.084-.923-3.83-1.164-.862-.119-3.501.196-3.982-.054-.165-.323-.13-.188-.041-.611M7.95 19.318c1.41-.066 5.806.18 6.305 1.626l-.21.123c-.45.033-.578-.056-.958-.265a9 9 0 0 0-2.678-.698c-1.09-.114-3.78.176-4.329-.335l.122-.158c.598-.315 1.079-.277 1.748-.293M7.88 22.328c1.364-.124 5.577.142 6.186 1.49l-.13.165c-.443.083-.764-.116-1.196-.297-2.376-.89-3.945-.592-6.364-.67-.166-.006-.21-.18-.272-.307l.145-.206c.409-.176 1.158-.16 1.63-.175"/><path fill="#0095bf" fill-rule="evenodd" d="M34.153 18.924a6.66 6.66 0 1 1 2.37 13.11 6.66 6.66 0 0 1-2.37-13.11m2.01 5.101c-.31-.27-.857-.185-1.27-.164-.262.08-.628.156-.763.432-.762 1.562.796 3.497-.76 4.583l-.008.168c.471.35 1.694.516 2.28.536.416-.105 1.227-.245 1.452-.634-.33-.365-.59-.34-.683-.901-.2-1.2.652-3.05-.248-4.02m.42-2.726a1.315 1.315 0 1 0-2.515.765 1.315 1.315 0 0 0 2.515-.765" clip-rule="evenodd"/><path fill="#0095bf" d="M.795 12.386c.378-.022.519-.015.895.028.249.394.057 14.658.186 16.627 4.877-1.274 8.727-1.342 13.472.306 1.058 1.508 2.849 1.566 3.876.02 3.436-1.299 5.225-1.325 8.913-1.167.464.981.848 1.544 1.55 2.364l.665.722c-3.566.056-7.276.002-10.853-.004-1.507 1.248-2.826 1.255-4.34.024-1.826-.012-14.16.172-14.845-.303a5.6 5.6 0 0 1-.268-1.605C.014 24.465.038 19.53.027 14.595c-.002-1.05-.246-1.678.768-2.21M32.719 12.359c.399-.003 1.152-.03 1.434.186.626.481.488 5.126.25 5.44-.533.097-1.133.247-1.667.368zM24.272 13.293c.957-.072 3.708-.3 4.268.453l-.094.197c-.31.11-3.388-.043-4.472.087-1.293.093-2.81 1.06-3.475.759l-.063-.215c.353-.737 3.014-1.19 3.836-1.281M24.011 19.304c.803-.07 3.863-.175 4.445.193l.044.282-.05.024.07-.257.074.134-.05.076c-.732.372-2.861.143-3.899.213l-.15.011c-1.474.114-2.238.557-3.624.886-.23.055-.277-.056-.428-.194l.026-.224c.592-.58 2.687-1.028 3.542-1.144M24.034 16.295c.85-.142 3.89-.236 4.522.335l-.021.156c-.497.367-3.07.113-4.148.176-1.528.143-2.223.633-3.66.919-.14.027-.171-.071-.291-.207l.058-.223c.66-.63 2.622-1.03 3.54-1.156"/><path fill="#0095bf" d="M24.043 22.314c.608-.1 3.63-.131 4.148.079.069.287.03.217-.162.565-.47.112-2.81-.03-3.773.027-1.251.146-2.973.945-3.612.897l-.193-.225.047-.21c.632-.616 2.654-1.003 3.545-1.133"/></svg>