<svg xmlns="http://www.w3.org/2000/svg" fill="none" viewBox="-2 -2 32 32"><path fill="#0095bf" d="M13.16.135c-.39.14-.54.24-1 .65-.51.46-.69.95-.83 2.31-.17 1.57-.33 2.18-.85 3.22-.54 1.091-1.53 2.071-2.67 2.661l-.79.42-.54-.3-.54-.3H3.91c-1.841 0-2.071.02-2.421.2-.51.26-1.01.76-1.26 1.26-.18.37-.19.7-.22 8.022-.02 7.592-.02 7.632.19 8.122.24.56.9 1.22 1.45 1.45.28.12.78.15 2.28.15 1.79 0 1.94-.02 2.41-.24.47-.21 1.07-.77 1.17-1.08.05-.14.01-.15 3.381.62 2.87.65 3.621.72 7.952.68l3.8-.03.58-.29c.71-.36 1.1-.79 1.511-1.66.25-.52.31-.79.32-1.4.02-.73.03-.76.42-1.17.23-.23.54-.741.73-1.201.32-.73.34-.85.35-1.94 0-1.12.01-1.16.32-1.6.7-1.021.94-2.551.57-3.521-.16-.42-.16-.49-.03-.65.39-.44.51-.87.56-1.93.04-1.051.04-1.071-.28-1.681-.4-.74-.83-1.14-1.65-1.52-.79-.37-1.71-.47-5.13-.56l-2.731-.06.07-.66c.13-1.261.08-3.021-.11-3.751-.75-2.931-3.07-4.901-4.981-4.221m1.681 2.02c1.66 1.27 2.18 4.11 1.29 7.101-.15.49-.29.98-.31 1.09-.04.2.02.2 3.891.23 2.16.01 4.26.07 4.671.12.87.12 1.5.43 1.7.85.19.39.16 1.511-.04 1.821-.33.5-.59.58-2.13.61-1.4.04-1.44.04-1.54.28-.09.19-.08.28.07.44.16.18.31.2 1.33.2 1.24 0 1.66.14 1.89.62.44.9-.02 2.291-.9 2.691-.35.15-.66.19-1.8.19-1.37 0-1.37 0-1.49.25-.09.21-.08.28.07.45.16.18.31.2 1.41.2 1.16 0 1.24.01 1.52.25.4.34.47.72.27 1.42-.44 1.5-.81 1.741-2.8 1.831l-1.3.05v.7l1 .05c1.03.05 1.37.16 1.55.5.25.47-.06 1.45-.58 1.85-.26.19-.43.2-4.321.2-4.561 0-4.521 0-8.452-.91-2.02-.47-2.61-.67-2.76-.95-.15-.29-.12-12.482.04-12.792.08-.17.46-.42 1.13-.75 1.26-.63 1.87-1.08 2.69-1.98 1.11-1.22 2.14-3.701 2.15-5.212.02-1.69.67-2.22 1.751-1.4M5.8 10.787l.29.29V25.74l-.22.23c-.21.22-.27.23-1.92.23-1.6 0-1.71-.01-1.93-.22l-.23-.21v-7.322c0-7.931-.02-7.631.54-7.851.11-.05.88-.09 1.69-.09l1.49-.01z"/></svg>