<svg xmlns="http://www.w3.org/2000/svg" fill="none" viewBox="-4 0 24 12"><path fill="#0095bf" fill-rule="evenodd" d="M8 0c1.95 0 3.816 1.03 5.554 2.723a16.8 16.8 0 0 1 2.2 2.65L16 5.76l-.246.388c-.111.175-.313.467-.598.84a17 17 0 0 1-1.602 1.81C11.816 10.491 9.95 11.521 8 11.521c-1.95 0-3.816-1.03-5.554-2.723a16.7 16.7 0 0 1-2.2-2.65L0 5.76l.246-.388a16.743 16.743 0 0 1 2.2-2.65C4.184 1.03 6.05 0 8 0m6.023 5.412a15 15 0 0 0-1.463-1.654C11.062 2.3 9.505 1.44 8 1.44s-3.062.86-4.56 2.318A15.3 15.3 0 0 0 1.72 5.76q.118.165.258.348c.433.565.924 1.13 1.463 1.655C4.938 9.22 6.495 10.08 8 10.08s3.063-.86 4.56-2.318A15.3 15.3 0 0 0 14.28 5.76q-.118-.165-.258-.348M5.14 5.76A2.87 2.87 0 0 0 8 8.64a2.87 2.87 0 0 0 2.86-2.88A2.87 2.87 0 0 0 8 2.88a2.87 2.87 0 0 0-2.86 2.88m4.29 0c0 .796-.64 1.44-1.43 1.44s-1.43-.644-1.43-1.44S7.21 4.32 8 4.32s1.43.645 1.43 1.44" clip-rule="evenodd"/></svg>