<svg xmlns="http://www.w3.org/2000/svg" fill="none" viewBox="-3 0 24 19"><path fill="#0095bf" d="M16.934 15.225a8.8 8.8 0 0 0-1.89-2.8 8.8 8.8 0 0 0-2.8-1.89q-.015-.006-.028-.012A5.811 5.811 0 0 0 8.813 0a5.811 5.811 0 0 0-3.404 10.526l-.028.011a8.7 8.7 0 0 0-2.8 1.89 8.8 8.8 0 0 0-1.89 2.8A8.7 8.7 0 0 0 0 18.464a.19.19 0 0 0 .187.192h1.407a.187.187 0 0 0 .187-.183 6.99 6.99 0 0 1 2.058-4.788 6.99 6.99 0 0 1 4.973-2.06c1.88 0 3.645.731 4.974 2.06a6.99 6.99 0 0 1 2.058 4.788.185.185 0 0 0 .187.183h1.406a.18.18 0 0 0 .135-.056.19.19 0 0 0 .053-.136 8.7 8.7 0 0 0-.692-3.239M8.811 9.844a4 4 0 0 1-2.85-1.181 4 4 0 0 1-1.18-2.85c0-1.076.419-2.089 1.18-2.85a4 4 0 0 1 2.85-1.182c1.076 0 2.089.42 2.85 1.182a4 4 0 0 1 1.182 2.85c0 1.075-.42 2.088-1.182 2.85a4 4 0 0 1-2.85 1.18"/></svg>