<svg xmlns="http://www.w3.org/2000/svg" fill="none" viewBox="0 0 42 42"><path fill="#173551" d="M18.886 1.371c6.107-1.048 11.906 3.061 12.942 9.172 1.037 6.111-3.082 11.903-9.194 12.928-6.095 1.023-11.866-3.084-12.9-9.178S12.795 2.417 18.886 1.37"/><path fill="#fff" d="M19.598 3.432c2.015-.11 3.664.09 5.454 1.116a8.83 8.83 0 0 1 4.093 5.35c.691 2.588.088 5.79-1.272 8.075-1.532 2.573-2.994 2.797-5.664 3.462C11.198 23.077 7.541 5.812 19.6 3.432"/><path fill="#173551" d="M25.362 23.661c2.385-.01 9.72 3.14 12.479 3.844 4.029 1.029 4.278 9.467 4.017 12.874-.362.006-1.79.088-1.88-.331-.583-2.758.234-7.236-1.546-9.584-1.886-2.487-13.635-3.178-13.07-6.803m-9.511.02.322.11.09.367c-.217.657-.75 1.206-1.201 1.744-2.407.788-10.156 2.879-11.784 4.765-1.43 1.659-.753 7.446-1.486 9.603-.106.31-.696.421-.995.522-.218-.202-.713-.65-.714-.99-.069-2.336.102-8.663 1.455-10.434 1.864-2.443 11.355-5.196 14.313-5.687"/></svg>