<svg xmlns="http://www.w3.org/2000/svg" fill="none" viewBox="-2 -2 24 24"><path fill="#0095bf" d="M16.81 12.494c-.699-.726-1.609-.726-2.338 0l-1.639 1.632c-.152.15-.274.18-.455.093-.332-.21-.73-.36-1.062-.575-1.58-1-2.916-2.271-4.1-3.718-.577-.726-1.09-1.48-1.458-2.358-.059-.18-.059-.273.093-.424.578-.517 1.09-1.057 1.64-1.603.757-.755.757-1.632 0-2.387L6.183 1.853C5.729 1.4 5.303.947 4.848.523c-.7-.697-1.61-.697-2.34 0L.87 2.155a2.84 2.84 0 0 0-.852 1.812C-.075 5.088.2 6.174.596 7.231c.822 2.208 2.065 4.113 3.552 5.896 2.036 2.422 4.462 4.327 7.29 5.686 1.278.604 2.585 1.086 3.979 1.18 1.003.057 1.855-.21 2.549-.97.455-.547 1.003-1 1.487-1.51.73-.756.73-1.662 0-2.388z"/></svg>