<svg xmlns="http://www.w3.org/2000/svg" fill="none" viewBox="-5 -5 24 24"><g clip-path="url(#a)"><path fill="#0095bf" fill-rule="evenodd" d="M8.05.86A.75.75 0 0 0 7.3.11 7.25 7.25 0 0 0 .05 7.36a.75.75 0 1 0 1.5 0A5.75 5.75 0 0 1 7.3 1.61a.75.75 0 0 0 .75-.75m-1.073 12.6a2.7 2.7 0 0 1-3.37-.36l-.38-.38a.91.91 0 0 1 0-1.28l1.6-1.59a.9.9 0 0 1 1.27 0 .91.91 0 0 0 1.28 0l2.55-2.55a.91.91 0 0 0 0-1.28.9.9 0 0 1 0-1.27l1.54-1.6a.91.91 0 0 1 1.28 0l.38.38a2.7 2.7 0 0 1 .41 3.37 24.2 24.2 0 0 1-6.56 6.56m.638-10.457a.75.75 0 0 1 0 1.5 3.25 3.25 0 0 0-3.25 3.25.75.75 0 0 1-1.5 0 4.75 4.75 0 0 1 4.75-4.75" clip-rule="evenodd"/></g><defs><clipPath id="a"><path fill="#0095bf" d="M0 0h14v14H0z"/></clipPath></defs></svg>