<svg width="24" height="21" viewBox="-2 0 24 21" fill="none" xmlns="http://www.w3.org/2000/svg">
<path fill-rule="evenodd" clip-rule="evenodd" d="M2 5.03445H4V0H16V5.03445H18C19.1046 5.03445 20 5.93605 20 7.04823V15.1034C20 16.2155 19.1046 17.1171 18 17.1171H16V20.1378H4V17.1171H2C0.89543 17.1171 0 16.2155 0 15.1034V7.04823C0 5.93605 0.89543 5.03445 2 5.03445ZM14 5.03445H6V2.01378H14V5.03445ZM18 7.04823V15.1034H16V13.0896H4V15.1034H2V7.04823H18ZM14 15.1034H6V18.124H14V15.1034ZM17 9.06201C17 8.50592 16.5523 8.05512 16 8.05512C15.4477 8.05512 15 8.50592 15 9.06201C15 9.6181 15.4477 10.0689 16 10.0689C16.5523 10.0689 17 9.6181 17 9.06201Z" fill="#0095BF"/>
</svg>
