<svg xmlns="http://www.w3.org/2000/svg" fill="none" viewBox="-4 -4 24 24"><path fill="#0095bf" fill-rule="evenodd" d="M2.294 5.68.8 5.6v-4h1.6v1.016C3.78.946 5.757 0 8 0a8 8 0 0 1 8 8h-1.6A6.4 6.4 0 0 0 8 1.6c-3.098 0-5.37 2.747-5.706 4.08m2.919-.787a1 1 0 0 1 .22-.025l6.024.433c.54.01 1.067.46.807 1.046-.051.114-.28.578-.645 1.309l-.454.908-.147.295-.046.09c-.124.321-.386.569-.712.673l-.064.02H4.994a.475.475 0 0 0-.453.435l-.001.408c.015.248.212.447.432.46h.073a1.295 1.295 0 0 1 1.22-.868c.563 0 1.042.362 1.22.868h1.01a1.295 1.295 0 0 1 1.22-.868c.714 0 1.293.583 1.293 1.302s-.58 1.303-1.294 1.303a1.295 1.295 0 0 1-1.22-.869H7.486a1.295 1.295 0 0 1-1.22.868 1.295 1.295 0 0 1-1.22-.868h-.098c-.681-.04-1.227-.588-1.269-1.302v-.456a1.35 1.35 0 0 1 1.29-1.28l-.423-2.978-.004-.062c0-.28-.142-.614-.305-.778-.043-.042-.23-.09-.558-.09V4c.536 0 .922.097 1.167.344.145.146.272.337.368.55m4.501 6.92a.433.433 0 0 0 .431-.434.433.433 0 0 0-.43-.434.433.433 0 0 0-.432.434c0 .24.193.434.431.434m-3.017-.434c0 .24-.193.434-.432.434a.433.433 0 0 1-.43-.434c0-.24.192-.434.43-.434.239 0 .432.194.432.434M15.2 10.4h-1.6c-.566 1.947-2.538 4-5.6 4A6.4 6.4 0 0 1 1.6 8H0a8 8 0 0 0 8 8c2.243 0 4.22-.946 5.6-2.616V14.4h1.6z" clip-rule="evenodd"/></svg>