<svg xmlns="http://www.w3.org/2000/svg" fill="none" viewBox="-4 -4 24 24"><path fill="#0095bf" fill-rule="evenodd" d="M9.534 3.2q0 .346.07.67L5.575 5.9a3.16 3.16 0 0 0-2.397-1.1C1.423 4.8 0 6.233 0 8s1.423 3.2 3.178 3.2c.957 0 1.815-.425 2.397-1.099l4.03 2.029q-.07.325-.07.67c0 1.767 1.422 3.2 3.177 3.2s3.178-1.433 3.178-3.2-1.422-3.2-3.178-3.2a3.16 3.16 0 0 0-2.397 1.099L6.286 8.67a3.2 3.2 0 0 0 0-1.34l4.03-2.029A3.16 3.16 0 0 0 12.711 6.4c1.756 0 3.178-1.433 3.178-3.2S14.468 0 12.712 0c-1.755 0-3.178 1.433-3.178 3.2M4.767 8c0 .884-.711 1.6-1.589 1.6A1.595 1.595 0 0 1 1.59 8c0-.884.711-1.6 1.59-1.6.877 0 1.588.716 1.588 1.6m7.945-3.2c.878 0 1.59-.716 1.59-1.6s-.712-1.6-1.59-1.6c-.877 0-1.589.716-1.589 1.6s.712 1.6 1.59 1.6m1.59 8c0 .884-.712 1.6-1.59 1.6a1.594 1.594 0 0 1-1.589-1.6c0-.884.712-1.6 1.59-1.6.877 0 1.589.716 1.589 1.6" clip-rule="evenodd"/></svg>