<svg xmlns="http://www.w3.org/2000/svg" fill="none" viewBox="0 0 28 28"><rect width="28" height="28" fill="#1ca0e9" rx="8"/><path fill="#fff" fill-rule="evenodd" d="M22.953 5.142s1.52-.681 1.547.445l-3.33 16.724c-.01.025-.484 1.147-1.729.603l-4.717-3.617-3.041 2.751s-.236.184-.498.08c-.006-.001-.24-.037-.498-.892-.287-.887-1.69-5.486-1.704-5.53l-4.692-1.574c-.016-.006-.708-.268-.786-.812-.078-.546.797-.859.812-.864zm-2.07 3.407c.025-.388-.616-.007-.63 0l-10.3 6.553a.39.39 0 0 0-.157.446l1.231 4.036c.079.236.42.21.472-.051l.29-2.465c0-.105.051-.183.13-.235.996-.892 8.414-7.55 8.729-7.864.34-.367.235-.42.235-.42" clip-rule="evenodd"/></svg>