<svg xmlns="http://www.w3.org/2000/svg" fill="none" viewBox="-0.5 0 24 19"><path fill="#0095bf" d="M6.59 7.234a1.003 1.003 0 0 1-1.298.575 1.003 1.003 0 0 1-.565-1.302 1.003 1.003 0 0 1 1.298-.574c.514.2.767.783.565 1.301"/><path fill="#0095bf" fill-rule="evenodd" d="m7.789.136 13.474 5.26A2.007 2.007 0 0 1 22.394 8l-3.662 9.38a2.007 2.007 0 0 1-2.595 1.149l-13.474-5.26a2 2 0 0 1-1.225-1.441L.023 5.27a1.01 1.01 0 0 1 .406-1.04L5.912.366A2 2 0 0 1 7.79.136M2.12 5.49l1.274 5.902 13.474 5.26 3.662-9.38-13.475-5.26z" clip-rule="evenodd"/></svg>