<svg xmlns="http://www.w3.org/2000/svg" fill="none" viewBox="-4 -4 24 24"><path fill="#0095bf" fill-rule="evenodd" d="M8 12.8c1.575 0 3.027-.654 4-1.746C11.51 10.31 9.713 9.6 8 9.6s-3.51.71-4 1.454c.973 1.092 2.425 1.746 4 1.746M8 4c1.328 0 2.4 1.072 2.4 2.4S9.328 8.8 8 8.8a2.397 2.397 0 0 1-2.4-2.4C5.6 5.072 6.672 4 8 4m0-2.4A6.403 6.403 0 0 0 1.6 8c0 3.532 2.868 6.4 6.4 6.4s6.4-2.868 6.4-6.4S11.532 1.6 8 1.6M8 0c4.416 0 8 3.584 8 8s-3.584 8-8 8-8-3.584-8-8 3.584-8 8-8" clip-rule="evenodd"/></svg>