<svg xmlns="http://www.w3.org/2000/svg" fill="none" viewBox="0 0 20 24"><path fill="#fff" d="M19.958 11.239c-.337 2.267-1.347 4.198-2.946 5.793-.926.84-1.768 1.763-2.694 2.602-1.347 1.428-2.694 2.939-4.04 4.366-2.863-2.938-5.64-5.457-8.25-8.228C.513 14.093-.076 11.91.008 9.644.092 4.774 3.88.576 8.594.073c5.303-.588 9.849 2.434 11.196 7.388.336 1.007.168 3.61.168 3.778m-9.933 2.015c1.768 0 3.283-1.428 3.283-3.19 0-1.764-1.515-3.275-3.199-3.275S6.826 8.3 6.826 9.98c0 1.764 1.431 3.275 3.199 3.275"/></svg>