<svg xmlns="http://www.w3.org/2000/svg" fill="none" viewBox="0 0 116 46"><path fill="#0095bf" fill-rule="evenodd" d="M12.806 8.99c-.046 1.566-.069 3.2.014 4.763.045.87.233 2.003-.97 1.804-1.062-.176-2.642-.799-3.54-1.404-1.968-1.372-1.968-4.784 0-6.157l.248-.162c.653-.429 3.122-1.457 3.844-1.255.656.181.423 1.858.406 2.415m11.206 5.16c-.898.604-2.477 1.227-3.54 1.403-1.202.199-1.014-.932-.969-1.804.083-1.563.06-3.197.014-4.762-.017-.557-.25-2.233.407-2.415.721-.202 3.188.827 3.844 1.256 2.162 1.417 2.364 4.847.247 6.321zm8.336-3.078C32.35 3.826 23.983.572 15.758.55 7.81.527 0 3.473 0 11.076S7.81 21.63 15.758 21.603c8.225-.026 16.592-3.276 16.592-10.527M42.309 12.883V.944h-6.833v20.264h6.833L53.023 9.181v12.027h6.834V.944h-6.834zM76.111 9.778 86.23.944h-8.328l-8.117 7.461V.945h-6.802v20.263h6.802V16.25l2.057-2.125 7.583 7.083h6.805zM102.819 5.531c3.304-.1 5.756 1.665 6.506 4.009l6.001-2.742c-1.898-4.06-6.495-6.967-12.507-6.79-7.978.235-13.664 4.13-13.46 11.072s5.459 11.05 13.46 11.072c5.884.017 10.393-2.673 12.368-6.529l-5.93-2.813c-.821 2.222-3.219 3.827-6.438 3.819-4.01-.012-6.646-2.071-6.745-5.55-.103-3.477 2.747-5.429 6.745-5.548" clip-rule="evenodd"/><path fill="#b0afaf" d="m95.415 30.852-3.478 4.745 3.836 5.22h-3.816l-3.506-5.064v5.063h-3.404v-5.063l-3.506 5.063h-3.813l3.841-5.219-3.489-4.745h3.76l3.207 4.822v-4.822h3.404v4.822l3.216-4.822h3.75zm-23.111 2.14q-.634-.001-1.06.389-.425.392-.497 1.219h3.088a1.95 1.95 0 0 0-.184-.816 1.4 1.4 0 0 0-.515-.582c-.221-.145-.5-.213-.832-.213zm-.12-2.316q1.486 0 2.566.506a3.7 3.7 0 0 1 1.674 1.52q.588 1.011.588 2.526v1.52H70.67q.048.803.608 1.312.562.512 1.648.512.96 0 1.765-.188a8.6 8.6 0 0 0 1.656-.57v2.446q-.751.378-1.625.556-.875.176-2.205.177-1.55 0-2.767-.537a4.2 4.2 0 0 1-1.921-1.665q-.7-1.126-.702-2.896c0-1.179.21-2.17.634-2.943a4 4 0 0 1 1.773-1.716q1.137-.56 2.65-.56m-7.083.176.009 9.962h-3.49l-.008-7.43-2.719-.009.009 7.439h-3.49l-.016-9.962H65.1m-16.425 2.14q-.634-.001-1.06.389-.425.392-.497 1.219h3.089a1.95 1.95 0 0 0-.185-.816 1.4 1.4 0 0 0-.514-.582c-.222-.145-.5-.213-.833-.213zm-.116-2.316c.988 0 1.846.168 2.565.506a3.7 3.7 0 0 1 1.674 1.52q.588 1.011.588 2.526v1.52h-6.342q.049.803.608 1.312.562.512 1.648.512.96 0 1.765-.188a8.6 8.6 0 0 0 1.656-.57v2.446q-.751.378-1.625.556-.875.176-2.205.177-1.55 0-2.767-.537a4.2 4.2 0 0 1-1.921-1.665q-.7-1.126-.702-2.896c0-1.179.21-2.17.634-2.943a4 4 0 0 1 1.773-1.716q1.138-.56 2.65-.56m-11.596 2.668q-.523.001-.83.242-.302.244-.44.727-.136.482-.153 1.204v.273q0 .802.128 1.353.127.548.446.832.315.28.87.279.454 0 .76-.256c.208-.168.359-.435.464-.796q.151-.539.15-1.429.001-1.312-.352-1.87t-1.042-.559m1.313-2.668q1.702-.001 2.68 1.318.974 1.32.974 3.813-.001 1.7-.491 2.859c-.324.772-.773 1.352-1.339 1.741a3.34 3.34 0 0 1-1.929.586c-.483 0-.895-.06-1.227-.177a2.9 2.9 0 0 1-.839-.437 3.7 3.7 0 0 1-.562-.546h-.108a12 12 0 0 1 .108 1.654v3.66h-3.506V30.855h2.855l.489 1.264h.165q.255-.383.616-.716c.245-.221.537-.397.89-.528q.526-.2 1.23-.199zm-11.57.176h3.87l-3.85 4.768 4.151 5.194h-3.994l-3.825-5.063v5.063h-3.506v-9.962h3.506v4.822l3.651-4.822z"/></svg>