<svg xmlns="http://www.w3.org/2000/svg" fill="none" viewBox="0 0 77 68"><path fill="#0095bf" fill-rule="evenodd" d="M17.902 1.722.471 32.024c-.628 1.09-.628 2.338 0 3.426l17.431 30.294a3.36 3.36 0 0 0 2.978 1.721h34.495c1.264 0 2.35-.627 2.978-1.721l17.43-30.294a3.35 3.35 0 0 0 0-3.426L58.357 1.722A3.36 3.36 0 0 0 55.378 0H20.883c-1.265 0-2.35.628-2.978 1.722m3.975 6.873L8.404 32.02c-.628 1.09-.628 2.338 0 3.426l13.476 23.42a3.36 3.36 0 0 0 2.977 1.723h26.546c1.264 0 2.35-.628 2.978-1.722l13.476-23.42c.628-1.092.628-2.339 0-3.427L54.38 8.595c-.631-1.097-1.716-1.722-2.978-1.722H24.857c-1.264 0-2.35.628-2.977 1.722" clip-rule="evenodd"/><path fill="#1a1a18" d="M46.496 56.29H29.764v-3.636h16.732zm0-5.395H29.764v-3.637h16.732zm0-5.396H29.764v-3.637h16.732zm0-5.395H29.764v-3.637h16.732zm0-5.393H29.764v-3.636h16.732zm-6.449-23.138c1.628.505 3.253 1.008 4.79 1.721a17.5 17.5 0 0 1 4.273 2.784c1.293 1.151 2.435 2.535 3.253 3.93a14.3 14.3 0 0 1 1.623 4.177c.31 1.378.43 2.73.551 4.086H21.715c.122-1.353.244-2.708.55-4.086.31-1.378.805-2.782 1.624-4.177.818-1.392 1.96-2.779 3.253-3.93a17.4 17.4 0 0 1 4.273-2.784c1.537-.71 3.162-1.216 4.79-1.722v5.493c0 1.409 0 2.188.097 2.702.096.514.287.767.608.903.241.102.554.139.884.16l.33.016c.448-.02.897-.04 1.218-.176s.512-.39.608-.903c.097-.514.097-1.293.097-2.702z"/></svg>