<svg xmlns="http://www.w3.org/2000/svg" fill="none" viewBox="0 0 42 42"><path fill="#173551" d="m25.905 23.502 2.634.01c.381.64 1.634 2.562 1.576 3.202l-.21.137c-1.245.002-3.031-.139-4.314-.205-.015-.583-.141-2.763.102-3.114zm4.501 2.972c.338-.02.592-.072.894.065.191.27.122.556.1.909-.313.012-.517.047-.809-.065-.226-.346-.158-.447-.185-.91m-16.42 3.7a.846.846 0 1 1 .843 1.468.846.846 0 0 1-.843-1.468m14.15.017a.806.806 0 1 1 .465 1.544.806.806 0 0 1-.465-1.543"/><path fill="#173551" fill-rule="evenodd" d="M9.41 19.316c1.938-.042 15.009-.18 15.752.105.595.23 1.061 1.781 1.324 2.375.657.011 3.12-.142 3.522.267 1.354 1.378 2.72 3.326 3.874 4.893-.008.95-.029 2.041.066 2.986.193 1.915-1.745 1.61-3.111 1.617-.254.652-.402.8-.879 1.296.599.01 2.176.033 2.686.201-.117.154-.36.142-.603.182-4.72.346-9.256-.166-13.956.05-2.547.118-5.33.257-7.834-.213.747-.095 1.52-.154 2.274-.242-.5-.624-.655-.838-.819-1.616-.808-.046-2.215.046-2.886-.234-.259-.294-.217-.168-.275-.52.334-.663.997-.377 1.108-1.332-.774-.844-1.64.5-1.459-2.466.126-2.06-.204-4.498.178-6.553.076-.404.702-.673 1.038-.796m16.512 12.27q-4.425-.07-8.852-.022c-.308.567-.45.763-.856 1.272.968.013 1.708.048 2.672.136.753.213 2.943.173 3.697.003 1.334-.009 2.744-.089 4.085-.139-.44-.468-.539-.657-.746-1.25m-10.538-1.795a1.452 1.452 0 1 0-1.937 2.163 1.452 1.452 0 0 0 1.937-2.163m14.305.824a1.354 1.354 0 1 0-2.632.632 1.354 1.354 0 0 0 2.632-.632m-5.583-7.913q.025 3.765-.016 7.531h1.952c1.401-3.036 4.023-1.627 4.85-.028l.155.04 1.934.006-.012-2.872c-1.416-1.524-2.528-3.15-3.844-4.618a183 183 0 0 0-5.019-.06m-.972 6.7c-1.1-.138-5.196-.097-6.404-.077l-.09.15.408.688q3.062.06 6.125.069c.039-.328.105-.543-.04-.83m-10.504-.174c-.197-.296-1.676-.132-2.084-.133.013.197-.016.546.143.657.59.408 1.203.323 1.624-.234zm10.278-9.06c-4.35-.01-9.339-.114-13.666.007-.296.445-.157 6.514-.159 7.608l13.646-.051.149-.102c.053-.397.051-.766.047-1.166-.024-2.095.02-4.2-.017-6.295m.795 1.646 1.512-.01c-.337-1.141-.232-1.64-1.515-1.633z" clip-rule="evenodd"/><path fill="#173551" d="M38.395 8.603c.717-.083 1.528.737 1.669 1.378-.134.928-1.016.478-.923 1.69.34.173.55-.063 1.064.205.38.372.447 2.187.506 2.825l-.696.72c.594 1.193 1.22 2.151 1.959 3.258 0 .78.219 3.657-.634 3.785-1.078-.46-1.67-2.016-2.393-2.701l-.096-.089c-.032-.606-.41-1.903-.918-2.249l-.178.057c-.258.389.005.839-.169 1.413-.37 1.218-1.462 1.747-2.472 2.327.023.683.078 1.422.118 2.109.751-.17 1.109-.363 1.793-.69.549.435 1.557 1.223 1.976 1.746.517.646 1.032 2.533.168 3.09-.818-.013-1.186-1.13-1.478-1.765.015.958.12 3.394-1.024 3.793-.773-.202-.916-1.127-1.486-1.595-.032-.026-.374-.016-.625-.185-.043-.353-.08-.235.082-.5 1.125-.54 1.485.605 1.945 1.426.507-1.303.248-1.636.442-3 .03-.192.213-.665.419-.731.706-.23 1.351 1.25 1.566 1.708-.09-.438-.218-1.202-.434-1.584-.437-.775-1.54-.32-2.048-1.065-.264-.387-1.067.392-1.772.1-.488-.589-.309-1.999-.424-2.81-.11-.769 1.484-1.08 2.022-1.796.63-.841.565-1 .509-2.052.583-.657.841-1.463 1.275-1.824l.164.063c.176.359.126.656.115 1.063.718.946.98 1.492 1.125 2.65.76.692 1.024 1.515 1.449 1.831.287-.305.23-1.682.235-2.167l-.55-.864c-.492-.777-1.347-1.914-1.346-2.848 0-.396.294-.607.578-.866l-.255-1.983c-.346.034-.933.141-1.218.003-.155-.319-.014-1.319-.062-1.738-.01-.084.755-.6.91-.712l-.63-.665c-.901.515-1.932.991-2.873 1.448l-.017 1.187c-.271.205-.71.447-1.016.628 0 .535.111.954-.35 1.282-.486.014-.995-.357-1.438-.611l-.116.047c-.945.398-1.264.692-2.066 1.31-.102.08-.928-.079-.947-.057-.708.817-.834 1.206-1.768 1.787-.764-.318-1.687-.887-2.513-1.268-.707.147-1.723.56-2.153-.122-.086-.415.106-.923.225-1.345-.414-.279-1.002-.604-1.442-.864-.117 1.664-1.397 1.622-2.741 2.286.013.567.196 1.487-.525 1.532-.447-.176-.886-.67-1.242-1.016-1.568.572-1.145.541-1.538 1.895-.167.576-1.478.856-1.727-.166.323-.29.43-.045.925-.165.579-.109.022-1.084.285-1.376.82-.912 1.904-1.12 2.949-.473l.093.058c.176-.19.15-.68.249-.805.333-.427 1.948-.971 2.512-1.214.023-.425-.009-.999.2-1.333.767-.298 2.145.682 2.54 1.328.268.438.12.816.015 1.275.531-.15 1.093-.212 1.641-.288.697.337 1.4.859 2.205 1.245 1.245-1.015.816-2.247 2.578-1.656.814-.908 1.178-1.086 2.355-1.426.954.537.785.484 1.27-.408.104-.192.598-.404.82-.51l-.008-1.254a48 48 0 0 0 3.36-1.712"/><path fill="#173551" d="M9.394 11.32c1.259.02.738 1.507 1.102 2.232.4.794.582.318.54 1.314 1.104.047.924.074 1.813.871.43-1.762 1.145-2.485 2.937-3.05.772-.244 1.229.735.513 1.247-.531.046-.565-.181-.935-.23-.658-.084-1.458 1.031-1.603 1.545.1.572 1.638.532 1.685 1.355-.62.895-.993-.28-1.513-.293-1.313-.033-1.403.109-2.456-.716-1.603-.053-2.063.792-3.183-.841-.42.427-.648.834-1.265.777l-.087-.182c.172-.652 1.195-1.436 1.861-1.463.378.28.148.544.397.865.251.326.72.267.977-.013a.76.76 0 0 0-.127-.51c-.403-.701-.466-1.33-.578-2.117-2.254 1.812-2.781 1.326-4.974 4.172l-1.655.106q.056 1.252.098 2.503c-.207.315-.498.648-.74.943l.598.958c.202.807-.664 1.534-1.23 2.068-.005.004-.507.031-.725.163-.049.455.195 1.665.273 2.245l.61.482c.126.45.274 1.057.599 1.39.375-.2.206-1.464.419-1.849.228-.414.878-.476 1.338-.559-.459-2.8 1.113-1.717 2.414-.597.344.02.475.021.804.114.254.26.215.144.24.452l-.198.22c-.357.161-.686.067-1.09.015a23 23 0 0 0-1.546-1.293c.163 1.617.011 1.595-1.452 2.082.03.607.153 1.838-.661 2.097-.99.314-1.355-.988-1.567-1.705l-.67-.6c-.151-.862-.67-2.793-.086-3.453 1.104-.367.385.77 1.806-.945-.742-1.236-.754-1.338.067-2.503-.03-2.322-.899-2.936 1.886-3.035 1.663-2.046 3.142-2.873 5.364-4.263"/></svg>